<?xml version="1.0" encoding="UTF-8"?>
<!DOCTYPE svg PUBLIC "-//W3C//DTD SVG 1.1//EN" "http://www.w3.org/Graphics/SVG/1.1/DTD/svg11.dtd">
<svg xmlns="http://www.w3.org/2000/svg" version="1.1" width="250px" height="264px" style="shape-rendering:geometricPrecision; text-rendering:geometricPrecision; image-rendering:optimizeQuality; fill-rule:evenodd; clip-rule:evenodd" xmlns:xlink="http://www.w3.org/1999/xlink">
<g><path style="opacity:0.18" fill="#e487a3" d="M 108.5,-0.5 C 109.833,-0.5 111.167,-0.5 112.5,-0.5C 112.557,0.608953 112.89,1.60895 113.5,2.5C 112.432,3.43448 111.099,3.76781 109.5,3.5C 108.432,2.56552 107.099,2.23219 105.5,2.5C 105.5,2.16667 105.5,1.83333 105.5,1.5C 107.179,1.71481 108.179,1.04814 108.5,-0.5 Z"/></g>
<g><path style="opacity:0.09" fill="#efb3c6" d="M 87.5,-0.5 C 94.5,-0.5 101.5,-0.5 108.5,-0.5C 108.179,1.04814 107.179,1.71481 105.5,1.5C 101.587,0.404186 97.5874,0.237519 93.5,1C 91.3474,1.09946 89.6808,1.9328 88.5,3.5C 87.8333,3.5 87.1667,3.5 86.5,3.5C 86.5,2.83333 86.5,2.16667 86.5,1.5C 86.8333,0.833333 87.1667,0.166667 87.5,-0.5 Z"/></g>
<g><path style="opacity:0.776" fill="#d75375" d="M 105.5,1.5 C 105.5,1.83333 105.5,2.16667 105.5,2.5C 99.7969,2.37477 94.1302,2.7081 88.5,3.5C 89.6808,1.9328 91.3474,1.09946 93.5,1C 97.5874,0.237519 101.587,0.404186 105.5,1.5 Z"/></g>
<g><path style="opacity:0.42" fill="#df6a94" d="M 86.5,1.5 C 86.5,2.16667 86.5,2.83333 86.5,3.5C 85.5,3.83333 84.8333,4.5 84.5,5.5C 84.1667,5.5 83.8333,5.5 83.5,5.5C 83.5,4.5 83.5,3.5 83.5,2.5C 84.609,2.44312 85.609,2.10978 86.5,1.5 Z"/></g>
<g><path style="opacity:1" fill="#c40f38" d="M 105.5,2.5 C 107.099,2.23219 108.432,2.56552 109.5,3.5C 111.302,4.4582 113.302,5.12487 115.5,5.5C 115.842,6.33825 116.508,6.67158 117.5,6.5C 119.167,8.83333 121.167,10.8333 123.5,12.5C 123.833,13.1667 124.167,13.8333 124.5,14.5C 124.719,15.675 124.386,16.675 123.5,17.5C 119.69,11.5196 114.356,7.68627 107.5,6C 102.798,5.17169 98.1313,5.33836 93.5,6.5C 94.9538,8.26332 94.6204,9.59665 92.5,10.5C 91.8281,9.05084 91.1614,7.7175 90.5,6.5C 89.5,6.5 88.5,6.5 87.5,6.5C 88.2625,5.73209 89.2625,5.23209 90.5,5C 88.4546,4.50987 86.4546,4.67653 84.5,5.5C 84.8333,4.5 85.5,3.83333 86.5,3.5C 87.1667,3.5 87.8333,3.5 88.5,3.5C 94.1302,2.7081 99.7969,2.37477 105.5,2.5 Z"/></g>
<g><path style="opacity:0.435" fill="#d65275" d="M 113.5,2.5 C 114.167,2.5 114.833,2.5 115.5,2.5C 115.5,3.5 115.5,4.5 115.5,5.5C 113.302,5.12487 111.302,4.4582 109.5,3.5C 111.099,3.76781 112.432,3.43448 113.5,2.5 Z"/></g>
<g><path style="opacity:0.282" fill="#eeafc4" d="M 115.5,2.5 C 116.872,3.51163 118.205,4.51163 119.5,5.5C 119.158,6.33825 118.492,6.67158 117.5,6.5C 116.508,6.67158 115.842,6.33825 115.5,5.5C 115.5,4.5 115.5,3.5 115.5,2.5 Z"/></g>
<g><path style="opacity:0.071" fill="#e27d99" d="M 119.5,5.5 C 121.167,6.5 122.5,7.83333 123.5,9.5C 123.5,10.5 123.5,11.5 123.5,12.5C 121.167,10.8333 119.167,8.83333 117.5,6.5C 118.492,6.67158 119.158,6.33825 119.5,5.5 Z"/></g>
<g><path style="opacity:0.122" fill="#edabc0" d="M 83.5,2.5 C 83.5,3.5 83.5,4.5 83.5,5.5C 81.8333,6.5 80.5,7.83333 79.5,9.5C 78.1667,10.1667 77.1667,11.1667 76.5,12.5C 75.5084,12.6716 74.8417,12.3382 74.5,11.5C 76.4784,7.52155 79.4784,4.52155 83.5,2.5 Z"/></g>
<g><path style="opacity:1" fill="#be1d25" d="M 87.5,6.5 C 86.1667,7.16667 85.1667,8.16667 84.5,9.5C 84.1667,9.5 83.8333,9.5 83.5,9.5C 82.8333,9.5 82.5,9.83333 82.5,10.5C 81.5,10.8333 80.8333,11.5 80.5,12.5C 79.7611,12.631 79.0944,12.4643 78.5,12C 79.2524,11.3292 79.5858,10.4959 79.5,9.5C 80.5,7.83333 81.8333,6.5 83.5,5.5C 83.8333,5.5 84.1667,5.5 84.5,5.5C 86.4546,4.67653 88.4546,4.50987 90.5,5C 89.2625,5.23209 88.2625,5.73209 87.5,6.5 Z"/></g>
<g><path style="opacity:0.231" fill="#f1bacb" d="M 67.5,8.5 C 67.1788,10.0481 66.1788,10.7148 64.5,10.5C 61.1667,10.5 57.8333,10.5 54.5,10.5C 53.5084,10.6716 52.8417,10.3382 52.5,9.5C 57.2533,7.26147 62.2533,6.92813 67.5,8.5 Z"/></g>
<g><path style="opacity:1" fill="#eeb8c2" d="M 87.5,6.5 C 88.5,6.5 89.5,6.5 90.5,6.5C 90.7373,7.79105 90.404,8.79105 89.5,9.5C 89.6309,8.62356 89.2975,7.95689 88.5,7.5C 87.3777,8.63023 86.0443,9.29689 84.5,9.5C 85.1667,8.16667 86.1667,7.16667 87.5,6.5 Z"/></g>
<g><path style="opacity:1" fill="#fbecf0" d="M 89.5,9.5 C 88.205,10.4884 86.8717,11.4884 85.5,12.5C 83.9519,12.1788 83.2852,11.1788 83.5,9.5C 83.8333,9.5 84.1667,9.5 84.5,9.5C 86.0443,9.29689 87.3777,8.63023 88.5,7.5C 89.2975,7.95689 89.6309,8.62356 89.5,9.5 Z"/></g>
<g><path style="opacity:0.596" fill="#ea9eb5" d="M 52.5,9.5 C 52.8417,10.3382 53.5084,10.6716 54.5,10.5C 54.5,10.8333 54.5,11.1667 54.5,11.5C 51.9591,12.1032 49.6257,12.1032 47.5,11.5C 48.6354,9.78679 50.302,9.12012 52.5,9.5 Z"/></g>
<g><path style="opacity:1" fill="#e3819e" d="M 83.5,9.5 C 83.2852,11.1788 83.9519,12.1788 85.5,12.5C 84.791,13.404 83.791,13.7373 82.5,13.5C 82.5,12.5 82.5,11.5 82.5,10.5C 82.5,9.83333 82.8333,9.5 83.5,9.5 Z"/></g>
<g><path style="opacity:0.99" fill="#c6143f" d="M 79.5,9.5 C 79.5858,10.4959 79.2524,11.3292 78.5,12C 79.0944,12.4643 79.7611,12.631 80.5,12.5C 78.506,14.8222 76.1727,16.8222 73.5,18.5C 71.3333,17.0521 69,15.8854 66.5,15C 60.1569,14.8199 53.8236,14.8199 47.5,15C 49.8583,13.7245 52.1916,12.5578 54.5,11.5C 54.5,11.1667 54.5,10.8333 54.5,10.5C 57.8333,10.5 61.1667,10.5 64.5,10.5C 67.4391,11.721 70.4391,13.0543 73.5,14.5C 75.0377,14.5466 76.0377,13.8799 76.5,12.5C 77.1667,11.1667 78.1667,10.1667 79.5,9.5 Z"/></g>
<g><path style="opacity:0.38" fill="#e27d99" d="M 67.5,8.5 C 69.9446,9.31238 72.2779,10.3124 74.5,11.5C 74.8417,12.3382 75.5084,12.6716 76.5,12.5C 76.0377,13.8799 75.0377,14.5466 73.5,14.5C 70.4391,13.0543 67.4391,11.721 64.5,10.5C 66.1788,10.7148 67.1788,10.0481 67.5,8.5 Z"/></g>
<g><path style="opacity:0.18" fill="#f5cbd9" d="M 45.5,11.5 C 45.5674,12.9587 45.2341,14.2921 44.5,15.5C 43.391,15.5569 42.391,15.8902 41.5,16.5C 40.8333,16.5 40.5,16.1667 40.5,15.5C 41.9448,13.9373 43.6115,12.604 45.5,11.5 Z"/></g>
<g><path style="opacity:0.033" fill="#f9e0e8" d="M 123.5,9.5 C 125.148,11.4293 126.815,13.4293 128.5,15.5C 129.183,15.1373 129.85,14.8039 130.5,14.5C 130.443,15.609 130.11,16.609 129.5,17.5C 127.336,17.2785 125.67,16.2785 124.5,14.5C 124.167,13.8333 123.833,13.1667 123.5,12.5C 123.5,11.5 123.5,10.5 123.5,9.5 Z"/></g>
<g><path style="opacity:0.208" fill="#e27e9b" d="M 142.5,14.5 C 142.557,15.609 142.89,16.609 143.5,17.5C 138.833,17.5 134.167,17.5 129.5,17.5C 130.11,16.609 130.443,15.609 130.5,14.5C 134.601,13.2092 138.601,13.2092 142.5,14.5 Z"/></g>
<g><path style="opacity:0.176" fill="#f7d8e4" d="M 142.5,14.5 C 144.153,14.6596 145.486,15.3263 146.5,16.5C 145.791,17.404 144.791,17.7373 143.5,17.5C 142.89,16.609 142.557,15.609 142.5,14.5 Z"/></g>
<g><path style="opacity:0.263" fill="#e588a1" d="M 40.5,15.5 C 40.5,16.1667 40.8333,16.5 41.5,16.5C 38.3952,19.5915 35.7286,22.9249 33.5,26.5C 34.9331,24.4418 35.5997,22.1085 35.5,19.5C 36.5794,17.457 38.246,16.1237 40.5,15.5 Z"/></g>
<g><path style="opacity:0.557" fill="#df7391" d="M 146.5,16.5 C 147.167,16.5 147.833,16.5 148.5,16.5C 148.557,17.609 148.89,18.609 149.5,19.5C 147.565,18.8505 145.565,18.5172 143.5,18.5C 143.5,18.1667 143.5,17.8333 143.5,17.5C 144.791,17.7373 145.791,17.404 146.5,16.5 Z"/></g>
<g><path style="opacity:0.573" fill="#d95c7f" d="M 149.5,19.5 C 151.38,19.2291 152.713,19.8958 153.5,21.5C 151.847,21.3404 150.514,20.6737 149.5,19.5 Z"/></g>
<g><path style="opacity:1" fill="#cb2251" d="M 124.5,14.5 C 125.67,16.2785 127.336,17.2785 129.5,17.5C 134.167,17.5 138.833,17.5 143.5,17.5C 143.5,17.8333 143.5,18.1667 143.5,18.5C 138.489,18.3341 133.489,18.5007 128.5,19C 127.692,19.3076 127.025,19.8076 126.5,20.5C 132.377,20.4869 138.377,20.6536 144.5,21C 150.412,22.538 155.245,25.7047 159,30.5C 159.743,32.4406 159.576,34.2739 158.5,36C 160.119,36.2355 161.119,37.0689 161.5,38.5C 160.5,38.5 159.5,38.5 158.5,38.5C 158.5,39.5 158.5,40.5 158.5,41.5C 158.183,44.5465 159.516,46.2132 162.5,46.5C 162.312,48.1033 162.812,49.4366 164,50.5C 164.757,48.6854 165.59,47.0188 166.5,45.5C 166.338,47.5273 166.505,49.5273 167,51.5C 167.383,52.056 167.883,52.3893 168.5,52.5C 168.5,53.1667 168.833,53.5 169.5,53.5C 169.5,53.8333 169.5,54.1667 169.5,54.5C 168.325,54.281 167.325,54.6143 166.5,55.5C 178.953,59.7767 185.453,68.4434 186,81.5C 186.534,77.141 186.368,72.8076 185.5,68.5C 186.338,68.8417 186.672,69.5084 186.5,70.5C 187.048,72.6264 187.715,74.6264 188.5,76.5C 188.5,76.8333 188.5,77.1667 188.5,77.5C 188.5,79.8333 188.5,82.1667 188.5,84.5C 188.5,84.8333 188.5,85.1667 188.5,85.5C 187.833,87.1667 187.167,88.8333 186.5,90.5C 186.662,88.4727 186.495,86.4727 186,84.5C 184.165,89.8418 181.665,94.8418 178.5,99.5C 178.957,100.298 179.624,100.631 180.5,100.5C 180.5,100.833 180.5,101.167 180.5,101.5C 179.903,101.735 179.57,102.235 179.5,103C 180.741,104.731 181.741,106.564 182.5,108.5C 181.518,107.859 180.518,107.193 179.5,106.5C 178.255,107.955 178.422,109.289 180,110.5C 180.499,114.486 180.666,118.486 180.5,122.5C 176.578,121.894 172.745,120.894 169,119.5C 164.372,117.258 159.872,115.258 155.5,113.5C 167.428,100.26 169.595,85.5929 162,69.5C 152.413,58.6927 140.58,55.3593 126.5,59.5C 126.5,58.5 126.5,57.5 126.5,56.5C 135.136,48.0332 143.969,39.6999 153,31.5C 153.483,30.552 153.649,29.552 153.5,28.5C 152.448,28.3505 151.448,28.5172 150.5,29C 142.929,36.2818 135.595,43.7818 128.5,51.5C 127.672,46.8685 127.172,42.2018 127,37.5C 126.617,36.944 126.117,36.6107 125.5,36.5C 121.177,27.5087 114.177,21.842 104.5,19.5C 104.423,18.2502 103.756,17.4169 102.5,17C 100.613,16.2204 98.9464,16.3871 97.5,17.5C 86.6436,16.8745 78.4769,21.2078 73,30.5C 70.034,37.8673 68.8673,45.5339 69.5,53.5C 66.1771,52.5075 62.8437,51.5075 59.5,50.5C 45.9195,45.3574 34.7528,48.6907 26,60.5C 15.7742,79.7472 19.2742,95.9138 36.5,109C 39.6883,110.316 43.0217,110.816 46.5,110.5C 46.7148,112.179 46.0481,113.179 44.5,113.5C 41.3926,113.649 38.3926,113.149 35.5,112C 29.5364,106.35 22.8697,101.683 15.5,98C 13.981,96.6487 12.6477,95.1487 11.5,93.5C 12.325,92.6143 13.325,92.281 14.5,92.5C 14.7678,90.901 14.4345,89.5676 13.5,88.5C 12.0256,87.5637 11.0256,86.2303 10.5,84.5C 11.5,84.5 12.5,84.5 13.5,84.5C 13.7709,82.6203 13.1042,81.287 11.5,80.5C 10.791,79.596 9.79105,79.2627 8.5,79.5C 8.5,80.5 8.5,81.5 8.5,82.5C 6.79734,81.3398 6.13068,82.0065 6.5,84.5C 4.83724,82.5615 4.17057,80.2282 4.5,77.5C 6.95512,78.697 9.28845,78.3637 11.5,76.5C 10.0095,75.7564 8.50949,75.0897 7,74.5C 7.05334,71.3248 6.22001,68.6581 4.5,66.5C 4.36596,64.7085 4.69929,63.0418 5.5,61.5C 5.32842,60.5084 5.66175,59.8417 6.5,59.5C 6.21478,61.288 6.54811,62.9547 7.5,64.5C 10.6639,53.3395 17.9973,46.6729 29.5,44.5C 27.9547,43.5481 26.288,43.2148 24.5,43.5C 24.5,43.1667 24.5,42.8333 24.5,42.5C 24.8333,42.5 25.1667,42.5 25.5,42.5C 27.1667,42.5 28.8333,42.5 30.5,42.5C 30.5,39.8333 30.5,37.1667 30.5,34.5C 30.5,33.8333 30.5,33.1667 30.5,32.5C 30.5,31.8333 30.8333,31.5 31.5,31.5C 31.3354,34.5184 31.502,37.5184 32,40.5C 33.813,41.6091 34.6463,40.9424 34.5,38.5C 36.5,38.5 37.5,37.5 37.5,35.5C 37.5,35.1667 37.5,34.8333 37.5,34.5C 38.4345,33.4324 38.7678,32.099 38.5,30.5C 37.1667,30.5 35.8333,30.5 34.5,30.5C 37.2904,25.0243 41.2904,20.3577 46.5,16.5C 46.0431,15.7025 45.3764,15.3691 44.5,15.5C 45.2341,14.2921 45.5674,12.9587 45.5,11.5C 46.1667,11.5 46.8333,11.5 47.5,11.5C 49.6257,12.1032 51.9591,12.1032 54.5,11.5C 52.1916,12.5578 49.8583,13.7245 47.5,15C 53.8236,14.8199 60.1569,14.8199 66.5,15C 69,15.8854 71.3333,17.0521 73.5,18.5C 76.1727,16.8222 78.506,14.8222 80.5,12.5C 80.8333,11.5 81.5,10.8333 82.5,10.5C 82.5,11.5 82.5,12.5 82.5,13.5C 83.791,13.7373 84.791,13.404 85.5,12.5C 86.8717,11.4884 88.205,10.4884 89.5,9.5C 90.404,8.79105 90.7373,7.79105 90.5,6.5C 91.1614,7.7175 91.8281,9.05084 92.5,10.5C 94.6204,9.59665 94.9538,8.26332 93.5,6.5C 98.1313,5.33836 102.798,5.17169 107.5,6C 114.356,7.68627 119.69,11.5196 123.5,17.5C 124.386,16.675 124.719,15.675 124.5,14.5 Z"/></g>
<g><path style="opacity:1" fill="#ea0541" d="M 104.5,19.5 C 101.772,19.8294 99.4385,19.1628 97.5,17.5C 98.9464,16.3871 100.613,16.2204 102.5,17C 103.756,17.4169 104.423,18.2502 104.5,19.5 Z"/></g>
<g><path style="opacity:0.122" fill="#f4cad8" d="M 148.5,16.5 C 155.604,18.5997 160.938,22.933 164.5,29.5C 163.833,29.5 163.167,29.5 162.5,29.5C 159.474,26.8046 156.474,24.1379 153.5,21.5C 152.713,19.8958 151.38,19.2291 149.5,19.5C 148.89,18.609 148.557,17.609 148.5,16.5 Z"/></g>
<g><path style="opacity:0.033" fill="#fae9ef" d="M 35.5,19.5 C 35.5997,22.1085 34.9331,24.4418 33.5,26.5C 32.0937,26.9731 31.427,27.9731 31.5,29.5C 31.5,30.1667 31.5,30.8333 31.5,31.5C 30.8333,31.5 30.5,31.8333 30.5,32.5C 29.5,32.5 28.5,32.5 27.5,32.5C 29.3348,27.663 32.0015,23.3296 35.5,19.5 Z"/></g>
<g><path style="opacity:1" fill="#fd2b6d" d="M 97.5,17.5 C 99.4385,19.1628 101.772,19.8294 104.5,19.5C 114.177,21.842 121.177,27.5087 125.5,36.5C 126.423,43.109 126.756,49.7756 126.5,56.5C 126.5,57.5 126.5,58.5 126.5,59.5C 140.58,55.3593 152.413,58.6927 162,69.5C 169.595,85.5929 167.428,100.26 155.5,113.5C 153.405,114.412 151.405,115.579 149.5,117C 147.866,117.494 146.199,117.66 144.5,117.5C 144.343,118.873 144.51,120.207 145,121.5C 152.699,136.481 150.532,149.981 138.5,162C 137.906,162.464 137.239,162.631 136.5,162.5C 133.382,159.525 130.715,160.025 128.5,164C 112.726,170.019 101.393,165.519 94.5,150.5C 95.7954,148.19 97.1287,145.857 98.5,143.5C 97.0508,142.828 95.7175,142.161 94.5,141.5C 99.42,140.545 104.42,139.878 109.5,139.5C 109.5,138.5 109.5,137.5 109.5,136.5C 110.29,137.609 110.79,138.942 111,140.5C 115.988,145.321 120.821,150.321 125.5,155.5C 126.583,154.635 126.749,153.635 126,152.5C 121.108,147.279 116.608,141.779 112.5,136C 114.802,134.077 117.135,132.244 119.5,130.5C 121.284,130.107 122.95,129.441 124.5,128.5C 125.568,129.434 126.901,129.768 128.5,129.5C 130.322,125.487 132.822,121.82 136,118.5C 140.662,111.19 143.162,103.19 143.5,94.5C 142.167,94.5 140.833,94.5 139.5,94.5C 143.942,93.0099 148.609,92.0099 153.5,91.5C 151.283,93.0799 148.616,94.0799 145.5,94.5C 145.667,94.8333 145.833,95.1667 146,95.5C 149.407,95.1987 152.907,95.532 156.5,96.5C 156.753,92.9601 157.419,89.6267 158.5,86.5C 159.568,85.5655 160.901,85.2322 162.5,85.5C 162.5,84.5 162.5,83.5 162.5,82.5C 155.872,84.3885 149.205,86.0552 142.5,87.5C 140.363,86.2619 139.029,84.4286 138.5,82C 136.939,81.8119 136.272,82.6453 136.5,84.5C 135.833,83.5 135.167,82.5 134.5,81.5C 134.5,80.8333 134.5,80.1667 134.5,79.5C 136.176,78.8166 136.843,77.4832 136.5,75.5C 132.368,73.5315 129.368,70.3649 127.5,66C 125.064,65.0701 122.731,63.9034 120.5,62.5C 119.438,63.4246 119.438,64.4246 120.5,65.5C 118.181,65.0075 116.181,64.0075 114.5,62.5C 115.873,62.6567 117.207,62.49 118.5,62C 114.381,59.2739 110.048,57.1072 105.5,55.5C 105.551,50.8128 106.551,46.4794 108.5,42.5C 109.482,39.0381 109.815,35.3714 109.5,31.5C 108.167,31.5 106.833,31.5 105.5,31.5C 105.563,36.2029 105.229,40.8696 104.5,45.5C 103.225,49.1023 102.225,52.769 101.5,56.5C 101.5,55.5 101.5,54.5 101.5,53.5C 99.5,53.5 97.5,53.5 95.5,53.5C 95.6664,45.8261 95.4997,38.1594 95,30.5C 93.6439,29.6198 92.1439,29.2865 90.5,29.5C 90.5,37.5 90.5,45.5 90.5,53.5C 83.1906,54.6332 76.5239,57.2999 70.5,61.5C 69.448,61.6495 68.448,61.4828 67.5,61C 65.9975,58.4562 64.1642,56.2895 62,54.5C 61.5,54.8333 61,55.1667 60.5,55.5C 61.2458,56.7362 61.5792,58.0695 61.5,59.5C 59.2646,59.7947 57.2646,59.4614 55.5,58.5C 56.8333,58.5 58.1667,58.5 59.5,58.5C 59.7373,57.209 59.404,56.209 58.5,55.5C 58.1583,54.6618 57.4916,54.3284 56.5,54.5C 56.5,54.1667 56.5,53.8333 56.5,53.5C 57.5,53.5 58.5,53.5 59.5,53.5C 59.5,52.5 59.5,51.5 59.5,50.5C 62.8437,51.5075 66.1771,52.5075 69.5,53.5C 68.8673,45.5339 70.034,37.8673 73,30.5C 78.4769,21.2078 86.6436,16.8745 97.5,17.5 Z"/></g>
<g><path style="opacity:1" fill="#ff94b5" d="M 102.5,21.5 C 102.5,21.1667 102.5,20.8333 102.5,20.5C 105.084,21.0483 106.084,22.715 105.5,25.5C 103.585,25.7845 101.919,25.4511 100.5,24.5C 101.978,24.762 103.311,24.4287 104.5,23.5C 104.145,22.4777 103.478,21.811 102.5,21.5 Z"/></g>
<g><path style="opacity:1" fill="#fff4f8" d="M 102.5,21.5 C 103.478,21.811 104.145,22.4777 104.5,23.5C 103.311,24.4287 101.978,24.762 100.5,24.5C 99.0857,22.4017 99.7524,21.4017 102.5,21.5 Z"/></g>
<g><path style="opacity:1" fill="#ffc5d8" d="M 102.5,20.5 C 102.5,20.8333 102.5,21.1667 102.5,21.5C 99.7524,21.4017 99.0857,22.4017 100.5,24.5C 98.8235,23.8166 98.1568,22.4832 98.5,20.5C 99.8333,20.5 101.167,20.5 102.5,20.5 Z"/></g>
<g><path style="opacity:0.549" fill="#e68ea9" d="M 33.5,26.5 C 33.573,28.0269 32.9063,29.0269 31.5,29.5C 31.427,27.9731 32.0937,26.9731 33.5,26.5 Z"/></g>
<g><path style="opacity:0.991" fill="#c20a2f" d="M 143.5,18.5 C 145.565,18.5172 147.565,18.8505 149.5,19.5C 150.514,20.6737 151.847,21.3404 153.5,21.5C 156.474,24.1379 159.474,26.8046 162.5,29.5C 162.989,30.9952 163.655,32.3285 164.5,33.5C 165.994,37.277 166.661,41.277 166.5,45.5C 165.59,47.0188 164.757,48.6854 164,50.5C 162.812,49.4366 162.312,48.1033 162.5,46.5C 163.152,45.5514 163.486,44.3847 163.5,43C 163.693,40.9919 163.026,39.4919 161.5,38.5C 161.119,37.0689 160.119,36.2355 158.5,36C 159.576,34.2739 159.743,32.4406 159,30.5C 155.245,25.7047 150.412,22.538 144.5,21C 138.377,20.6536 132.377,20.4869 126.5,20.5C 127.025,19.8076 127.692,19.3076 128.5,19C 133.489,18.5007 138.489,18.3341 143.5,18.5 Z"/></g>
<g><path style="opacity:0.025" fill="#f9e5ec" d="M 164.5,30.5 C 166.093,31.3479 167.26,32.6813 168,34.5C 168.483,35.448 168.649,36.448 168.5,37.5C 167.761,37.631 167.094,37.4643 166.5,37C 165.915,35.6976 165.249,34.531 164.5,33.5C 164.5,32.5 164.5,31.5 164.5,30.5 Z"/></g>
<g><path style="opacity:1" fill="#e07997" d="M 34.5,31.5 C 34.5,31.1667 34.5,30.8333 34.5,30.5C 35.8333,30.5 37.1667,30.5 38.5,30.5C 38.7678,32.099 38.4345,33.4324 37.5,34.5C 37.5,33.5 37.5,32.5 37.5,31.5C 36.5,31.5 35.5,31.5 34.5,31.5 Z"/></g>
<g><path style="opacity:0.431" fill="#e17e9a" d="M 162.5,29.5 C 163.167,29.5 163.833,29.5 164.5,29.5C 164.5,29.8333 164.5,30.1667 164.5,30.5C 164.5,31.5 164.5,32.5 164.5,33.5C 163.655,32.3285 162.989,30.9952 162.5,29.5 Z"/></g>
<g><path style="opacity:1" fill="#fcf1f5" d="M 34.5,31.5 C 35.5,31.5 36.5,31.5 37.5,31.5C 37.5,32.5 37.5,33.5 37.5,34.5C 37.5,34.8333 37.5,35.1667 37.5,35.5C 36.8501,35.8039 36.1835,36.1373 35.5,36.5C 34.5481,34.9547 34.2148,33.288 34.5,31.5 Z"/></g>
<g><path style="opacity:1" fill="#ff3c7a" d="M 95.5,53.5 C 95.5569,54.609 95.8902,55.609 96.5,56.5C 94.8333,56.5 93.1667,56.5 91.5,56.5C 91.7373,55.209 91.404,54.209 90.5,53.5C 90.5,45.5 90.5,37.5 90.5,29.5C 92.1439,29.2865 93.6439,29.6198 95,30.5C 95.4997,38.1594 95.6664,45.8261 95.5,53.5 Z"/></g>
<g><path style="opacity:1" fill="#ff4e86" d="M 108.5,42.5 C 108.665,39.4816 108.498,36.4816 108,33.5C 106.996,37.6028 105.829,41.6028 104.5,45.5C 105.229,40.8696 105.563,36.2029 105.5,31.5C 106.833,31.5 108.167,31.5 109.5,31.5C 109.815,35.3714 109.482,39.0381 108.5,42.5 Z"/></g>
<g><path style="opacity:1" fill="#e9a2b3" d="M 34.5,31.5 C 34.2148,33.288 34.5481,34.9547 35.5,36.5C 36.1835,36.1373 36.8501,35.8039 37.5,35.5C 37.5,37.5 36.5,38.5 34.5,38.5C 33.1667,36.1667 33.1667,33.8333 34.5,31.5 Z"/></g>
<g><path style="opacity:0.12" fill="#e896b1" d="M 27.5,32.5 C 28.5,32.5 29.5,32.5 30.5,32.5C 30.5,33.1667 30.5,33.8333 30.5,34.5C 29.8333,36.8333 29.1667,39.1667 28.5,41.5C 28.7373,40.209 28.404,39.209 27.5,38.5C 27.5,36.5 27.5,34.5 27.5,32.5 Z"/></g>
<g><path style="opacity:0.965" fill="#c31432" d="M 44.5,15.5 C 45.3764,15.3691 46.0431,15.7025 46.5,16.5C 41.2904,20.3577 37.2904,25.0243 34.5,30.5C 34.5,30.8333 34.5,31.1667 34.5,31.5C 33.1667,33.8333 33.1667,36.1667 34.5,38.5C 34.6463,40.9424 33.813,41.6091 32,40.5C 31.502,37.5184 31.3354,34.5184 31.5,31.5C 31.5,30.8333 31.5,30.1667 31.5,29.5C 32.9063,29.0269 33.573,28.0269 33.5,26.5C 35.7286,22.9249 38.3952,19.5915 41.5,16.5C 42.391,15.8902 43.391,15.5569 44.5,15.5 Z"/></g>
<g><path style="opacity:0.02" fill="#f9dbe7" d="M 27.5,38.5 C 28.404,39.209 28.7373,40.209 28.5,41.5C 27.209,41.2627 26.209,41.596 25.5,42.5C 25.1667,42.5 24.8333,42.5 24.5,42.5C 23.5084,42.6716 22.8417,42.3382 22.5,41.5C 24.3684,40.7368 26.0351,39.7368 27.5,38.5 Z"/></g>
<g><path style="opacity:1" fill="#ff5b8f" d="M 91.5,30.5 C 92.4959,30.4142 93.3292,30.7476 94,31.5C 94.8313,38.856 94.6646,46.1893 93.5,53.5C 92.914,53.2907 92.414,52.9574 92,52.5C 91.5003,45.1742 91.3337,37.8409 91.5,30.5 Z"/></g>
<g><path style="opacity:0.996" fill="#fae8ed" d="M 161.5,38.5 C 162.15,40.4352 162.483,42.4352 162.5,44.5C 161.5,44.5 160.5,44.5 159.5,44.5C 159.737,43.209 159.404,42.209 158.5,41.5C 158.5,40.5 158.5,39.5 158.5,38.5C 159.5,38.5 160.5,38.5 161.5,38.5 Z"/></g>
<g><path style="opacity:0.835" fill="#dc6586" d="M 30.5,34.5 C 30.5,37.1667 30.5,39.8333 30.5,42.5C 28.8333,42.5 27.1667,42.5 25.5,42.5C 26.209,41.596 27.209,41.2627 28.5,41.5C 29.1667,39.1667 29.8333,36.8333 30.5,34.5 Z"/></g>
<g><path style="opacity:0.29" fill="#e793ad" d="M 20.5,41.5 C 21.1667,41.5 21.8333,41.5 22.5,41.5C 22.8417,42.3382 23.5084,42.6716 24.5,42.5C 24.5,42.8333 24.5,43.1667 24.5,43.5C 23.0413,43.4326 21.7079,43.7659 20.5,44.5C 20.5,43.5 20.5,42.5 20.5,41.5 Z"/></g>
<g><path style="opacity:0.694" fill="#dd6c8c" d="M 164.5,33.5 C 165.249,34.531 165.915,35.6976 166.5,37C 167.094,37.4643 167.761,37.631 168.5,37.5C 169.404,38.209 169.737,39.209 169.5,40.5C 168.252,41.3339 167.585,42.6672 167.5,44.5C 167.511,46.0451 167.844,47.3784 168.5,48.5C 168.5,49.1667 168.5,49.8333 168.5,50.5C 168.5,51.1667 168.5,51.8333 168.5,52.5C 167.883,52.3893 167.383,52.056 167,51.5C 166.505,49.5273 166.338,47.5273 166.5,45.5C 166.661,41.277 165.994,37.277 164.5,33.5 Z"/></g>
<g><path style="opacity:0.353" fill="#f7d9e5" d="M 169.5,40.5 C 169.806,43.3854 169.473,46.0521 168.5,48.5C 167.844,47.3784 167.511,46.0451 167.5,44.5C 167.585,42.6672 168.252,41.3339 169.5,40.5 Z"/></g>
<g><path style="opacity:0.227" fill="#f4cada" d="M 20.5,41.5 C 20.5,42.5 20.5,43.5 20.5,44.5C 19.391,44.5569 18.391,44.8902 17.5,45.5C 16.8333,45.5 16.1667,45.5 15.5,45.5C 16.7822,43.8205 18.4489,42.4871 20.5,41.5 Z"/></g>
<g><path style="opacity:1" fill="#dc2459" d="M 126.5,56.5 C 126.756,49.7756 126.423,43.109 125.5,36.5C 126.117,36.6107 126.617,36.944 127,37.5C 127.172,42.2018 127.672,46.8685 128.5,51.5C 135.595,43.7818 142.929,36.2818 150.5,29C 151.448,28.5172 152.448,28.3505 153.5,28.5C 153.649,29.552 153.483,30.552 153,31.5C 143.969,39.6999 135.136,48.0332 126.5,56.5 Z"/></g>
<g><path style="opacity:1" fill="#d6506f" d="M 161.5,38.5 C 163.026,39.4919 163.693,40.9919 163.5,43C 163.486,44.3847 163.152,45.5514 162.5,46.5C 159.516,46.2132 158.183,44.5465 158.5,41.5C 159.404,42.209 159.737,43.209 159.5,44.5C 160.5,44.5 161.5,44.5 162.5,44.5C 162.483,42.4352 162.15,40.4352 161.5,38.5 Z"/></g>
<g><path style="opacity:0.3" fill="#e07392" d="M 15.5,45.5 C 16.1667,45.5 16.8333,45.5 17.5,45.5C 15.1395,48.5272 12.4729,51.1938 9.5,53.5C 9.5,52.5 9.5,51.5 9.5,50.5C 10.9108,48.086 12.9108,46.4194 15.5,45.5 Z"/></g>
<g><path style="opacity:0.988" fill="#c41135" d="M 24.5,43.5 C 26.288,43.2148 27.9547,43.5481 29.5,44.5C 17.9973,46.6729 10.6639,53.3395 7.5,64.5C 6.54811,62.9547 6.21478,61.288 6.5,59.5C 6.5,59.1667 6.5,58.8333 6.5,58.5C 7.90632,58.0269 8.57298,57.0269 8.5,55.5C 8.83333,54.8333 9.16667,54.1667 9.5,53.5C 12.4729,51.1938 15.1395,48.5272 17.5,45.5C 18.391,44.8902 19.391,44.5569 20.5,44.5C 21.7079,43.7659 23.0413,43.4326 24.5,43.5 Z"/></g>
<g><path style="opacity:0.282" fill="#edabc0" d="M 168.5,50.5 C 170.153,50.6596 171.486,51.3263 172.5,52.5C 171.791,53.404 170.791,53.7373 169.5,53.5C 168.833,53.5 168.5,53.1667 168.5,52.5C 168.5,51.8333 168.5,51.1667 168.5,50.5 Z"/></g>
<g><path style="opacity:1" fill="#ff94b5" d="M 56.5,53.5 C 56.5,53.8333 56.5,54.1667 56.5,54.5C 54.8333,54.5 53.1667,54.5 51.5,54.5C 51.5,55.5 51.5,56.5 51.5,57.5C 54.3878,58.0102 56.7211,57.3435 58.5,55.5C 59.404,56.209 59.7373,57.209 59.5,58.5C 58.1667,58.5 56.8333,58.5 55.5,58.5C 53.8333,58.5 52.1667,58.5 50.5,58.5C 50.5,56.8333 50.5,55.1667 50.5,53.5C 52.5,53.5 54.5,53.5 56.5,53.5 Z"/></g>
<g><path style="opacity:1" fill="#ff054c" d="M 95.5,53.5 C 97.5,53.5 99.5,53.5 101.5,53.5C 101.5,54.5 101.5,55.5 101.5,56.5C 99.8333,56.5 98.1667,56.5 96.5,56.5C 95.8902,55.609 95.5569,54.609 95.5,53.5 Z"/></g>
<g><path style="opacity:0.353" fill="#e07292" d="M 172.5,52.5 C 173.492,52.3284 174.158,52.6618 174.5,53.5C 174.5,54.1667 174.5,54.8333 174.5,55.5C 172.883,54.962 171.216,54.6287 169.5,54.5C 169.5,54.1667 169.5,53.8333 169.5,53.5C 170.791,53.7373 171.791,53.404 172.5,52.5 Z"/></g>
<g><path style="opacity:1" fill="#fe2a6c" d="M 59.5,50.5 C 59.5,51.5 59.5,52.5 59.5,53.5C 58.5,53.5 57.5,53.5 56.5,53.5C 54.5,53.5 52.5,53.5 50.5,53.5C 50.5,55.1667 50.5,56.8333 50.5,58.5C 52.1667,58.5 53.8333,58.5 55.5,58.5C 57.2646,59.4614 59.2646,59.7947 61.5,59.5C 61.5792,58.0695 61.2458,56.7362 60.5,55.5C 61,55.1667 61.5,54.8333 62,54.5C 64.1642,56.2895 65.9975,58.4562 67.5,61C 68.448,61.4828 69.448,61.6495 70.5,61.5C 66.8123,64.521 63.4789,67.8544 60.5,71.5C 54.1357,70.3069 47.8024,69.1403 41.5,68C 46.8704,72.1812 52.8704,74.0145 59.5,73.5C 60.2975,73.9569 60.6309,74.6236 60.5,75.5C 59.8333,77.5 59.1667,79.5 58.5,81.5C 55.1415,83.487 51.4748,83.987 47.5,83C 42.87,81.31 38.2033,79.81 33.5,78.5C 33.33,79.8221 33.6634,80.9887 34.5,82C 41.0871,85.1129 47.7538,87.2796 54.5,88.5C 53.5,88.5 52.5,88.5 51.5,88.5C 51.1697,95.5316 51.503,102.532 52.5,109.5C 54.8952,114.994 55.8952,114.661 55.5,108.5C 57.7793,113.641 60.446,118.641 63.5,123.5C 63.5394,124.583 63.8728,125.583 64.5,126.5C 63.8075,127.518 63.1408,128.518 62.5,129.5C 57.6416,134.195 53.3082,139.361 49.5,145C 49.8499,146.257 50.5165,146.591 51.5,146C 53.3329,143.002 55.6662,140.502 58.5,138.5C 62.4707,136.214 64.8041,132.881 65.5,128.5C 66.5,128.5 67.5,128.5 68.5,128.5C 69.1667,128.5 69.5,128.833 69.5,129.5C 67.9519,129.821 67.2852,130.821 67.5,132.5C 70.4345,133.301 73.1012,134.634 75.5,136.5C 72.4116,142.333 68.5783,147.667 64,152.5C 63.2506,153.635 63.4173,154.635 64.5,155.5C 69.2274,150.392 73.7274,145.059 78,139.5C 78.6838,138.216 78.5171,137.049 77.5,136C 79.1341,135.506 80.8008,135.34 82.5,135.5C 83.1667,135.5 83.5,135.833 83.5,136.5C 82.325,136.281 81.325,136.614 80.5,137.5C 84.4439,138.391 88.1106,139.724 91.5,141.5C 81.8812,159.748 67.2146,165.582 47.5,159C 43.7297,155.903 40.7297,152.236 38.5,148C 38.6448,147.228 38.9781,146.561 39.5,146C 36.6552,144.455 34.6552,142.288 33.5,139.5C 33.0679,136.123 33.7345,133.123 35.5,130.5C 37.4628,129.04 39.2962,127.373 41,125.5C 43.0055,121.487 45.5055,117.82 48.5,114.5C 47.9067,112.618 47.2401,110.785 46.5,109C 47.4162,108.626 48.2496,108.126 49,107.5C 49.6667,101.833 49.6667,96.1667 49,90.5C 48.8295,95.8642 48.3295,101.198 47.5,106.5C 37.4865,106.557 30.3199,101.89 26,92.5C 20.3556,64.9853 31.5222,50.9853 59.5,50.5 Z"/></g>
<g><path style="opacity:1" fill="#fff1f5" d="M 56.5,54.5 C 57.4916,54.3284 58.1583,54.6618 58.5,55.5C 56.7211,57.3435 54.3878,58.0102 51.5,57.5C 51.5,56.5 51.5,55.5 51.5,54.5C 53.1667,54.5 54.8333,54.5 56.5,54.5 Z"/></g>
<g><path style="opacity:0.029" fill="#f4c9d7" d="M 9.5,50.5 C 9.5,51.5 9.5,52.5 9.5,53.5C 9.16667,54.1667 8.83333,54.8333 8.5,55.5C 7.09368,55.9731 6.42702,56.9731 6.5,58.5C 6.5,58.8333 6.5,59.1667 6.5,59.5C 5.66175,59.8417 5.32842,60.5084 5.5,61.5C 4.5,61.5 3.5,61.5 2.5,61.5C 4.08747,57.3171 6.4208,53.6505 9.5,50.5 Z"/></g>
<g><path style="opacity:1" fill="#ff6192" d="M 108.5,42.5 C 106.551,46.4794 105.551,50.8128 105.5,55.5C 104.375,56.3478 104.375,57.3478 105.5,58.5C 100.167,57.1667 94.8333,57.1667 89.5,58.5C 89.8333,57.5 90.5,56.8333 91.5,56.5C 93.1667,56.5 94.8333,56.5 96.5,56.5C 98.1667,56.5 99.8333,56.5 101.5,56.5C 102.225,52.769 103.225,49.1023 104.5,45.5C 105.829,41.6028 106.996,37.6028 108,33.5C 108.498,36.4816 108.665,39.4816 108.5,42.5 Z"/></g>
<g><path style="opacity:0.631" fill="#db5f80" d="M 8.5,55.5 C 8.57298,57.0269 7.90632,58.0269 6.5,58.5C 6.42702,56.9731 7.09368,55.9731 8.5,55.5 Z"/></g>
<g><path style="opacity:1" fill="#c21431" d="M 169.5,54.5 C 171.216,54.6287 172.883,54.962 174.5,55.5C 177.438,57.934 180.271,60.6007 183,63.5C 184.094,65.0779 184.928,66.7446 185.5,68.5C 186.368,72.8076 186.534,77.141 186,81.5C 185.453,68.4434 178.953,59.7767 166.5,55.5C 167.325,54.6143 168.325,54.281 169.5,54.5 Z"/></g>
<g><path style="opacity:0.037" fill="#f4ccd9" d="M 174.5,53.5 C 181.245,57.5815 186.245,63.2482 189.5,70.5C 188.5,70.5 187.5,70.5 186.5,70.5C 186.672,69.5084 186.338,68.8417 185.5,68.5C 184.928,66.7446 184.094,65.0779 183,63.5C 180.271,60.6007 177.438,57.934 174.5,55.5C 174.5,54.8333 174.5,54.1667 174.5,53.5 Z"/></g>
<g><path style="opacity:1" fill="#ffd7e3" d="M 105.5,58.5 C 105.833,58.5 106.167,58.5 106.5,58.5C 106.5,58.8333 106.5,59.1667 106.5,59.5C 97.3567,59.0291 88.3567,59.6957 79.5,61.5C 82.2882,59.0237 85.6215,58.0237 89.5,58.5C 94.8333,57.1667 100.167,57.1667 105.5,58.5 Z"/></g>
<g><path style="opacity:1" fill="#ff4c7a" d="M 106.5,59.5 C 106.5,59.1667 106.5,58.8333 106.5,58.5C 110.085,58.2917 112.751,59.625 114.5,62.5C 111.833,61.5 109.167,60.5 106.5,59.5 Z"/></g>
<g><path style="opacity:1" fill="#fbf5f6" d="M 106.5,59.5 C 109.167,60.5 111.833,61.5 114.5,62.5C 116.181,64.0075 118.181,65.0075 120.5,65.5C 125.5,69.8333 130.167,74.5 134.5,79.5C 134.5,80.1667 134.5,80.8333 134.5,81.5C 136.622,88.3255 137.622,95.3255 137.5,102.5C 137.007,104.806 136.674,107.139 136.5,109.5C 135.326,110.514 134.66,111.847 134.5,113.5C 132.992,115.181 131.992,117.181 131.5,119.5C 129.413,120.585 128.08,122.251 127.5,124.5C 126.5,124.833 125.833,125.5 125.5,126.5C 123.147,127.34 121.147,128.674 119.5,130.5C 114.888,132.316 110.221,133.816 105.5,135C 104.944,135.383 104.611,135.883 104.5,136.5C 97.5,136.5 90.5,136.5 83.5,136.5C 83.5,135.833 83.1667,135.5 82.5,135.5C 80.1572,134.656 77.8239,133.656 75.5,132.5C 75.0269,131.094 74.0269,130.427 72.5,130.5C 71.609,129.89 70.609,129.557 69.5,129.5C 69.5,128.833 69.1667,128.5 68.5,128.5C 67.1667,126.5 65.5,124.833 63.5,123.5C 60.446,118.641 57.7793,113.641 55.5,108.5C 55.5,108.167 55.5,107.833 55.5,107.5C 55.5,106.167 55.5,104.833 55.5,103.5C 55.8333,97.5 56.1667,91.5 56.5,85.5C 57.6005,84.3951 58.2671,83.0618 58.5,81.5C 59.1667,79.5 59.8333,77.5 60.5,75.5C 61.5,74.8333 62.5,74.1667 63.5,73.5C 65.5869,72.4154 66.9202,70.7488 67.5,68.5C 69.5496,66.4525 71.883,64.7859 74.5,63.5C 76.0269,63.573 77.0269,62.9063 77.5,61.5C 78.1667,61.5 78.8333,61.5 79.5,61.5C 88.3567,59.6957 97.3567,59.0291 106.5,59.5 Z"/></g>
<g><path style="opacity:1" fill="#ff074e" d="M 105.5,55.5 C 110.048,57.1072 114.381,59.2739 118.5,62C 117.207,62.49 115.873,62.6567 114.5,62.5C 112.751,59.625 110.085,58.2917 106.5,58.5C 106.167,58.5 105.833,58.5 105.5,58.5C 104.375,57.3478 104.375,56.3478 105.5,55.5 Z"/></g>
<g><path style="opacity:1" fill="#fa2b6f" d="M 59.5,50.5 C 31.5222,50.9853 20.3556,64.9853 26,92.5C 30.3199,101.89 37.4865,106.557 47.5,106.5C 48.3295,101.198 48.8295,95.8642 49,90.5C 49.6667,96.1667 49.6667,101.833 49,107.5C 48.2496,108.126 47.4162,108.626 46.5,109C 47.2401,110.785 47.9067,112.618 48.5,114.5C 45.5055,117.82 43.0055,121.487 41,125.5C 39.2962,127.373 37.4628,129.04 35.5,130.5C 35.838,128.146 36.338,125.813 37,123.5C 39.7524,120.316 42.2524,116.982 44.5,113.5C 46.0481,113.179 46.7148,112.179 46.5,110.5C 43.0217,110.816 39.6883,110.316 36.5,109C 19.2742,95.9138 15.7742,79.7472 26,60.5C 34.7528,48.6907 45.9195,45.3574 59.5,50.5 Z"/></g>
<g><path style="opacity:0.286" fill="#e3819d" d="M 2.5,61.5 C 3.5,61.5 4.5,61.5 5.5,61.5C 4.69929,63.0418 4.36596,64.7085 4.5,66.5C 4.5,69.5 4.5,72.5 4.5,75.5C 3.83333,71.5 3.16667,67.5 2.5,63.5C 2.5,62.8333 2.5,62.1667 2.5,61.5 Z"/></g>
<g><path style="opacity:1" fill="#f791b1" d="M 77.5,61.5 C 77.0269,62.9063 76.0269,63.573 74.5,63.5C 74.9731,62.0937 75.9731,61.427 77.5,61.5 Z"/></g>
<g><path style="opacity:1" fill="#fc1955" d="M 90.5,53.5 C 91.404,54.209 91.7373,55.209 91.5,56.5C 90.5,56.8333 89.8333,57.5 89.5,58.5C 85.6215,58.0237 82.2882,59.0237 79.5,61.5C 78.8333,61.5 78.1667,61.5 77.5,61.5C 75.9731,61.427 74.9731,62.0937 74.5,63.5C 71.883,64.7859 69.5496,66.4525 67.5,68.5C 65.8333,69.5 64.5,70.8333 63.5,72.5C 62.209,72.7373 61.209,72.404 60.5,71.5C 63.4789,67.8544 66.8123,64.521 70.5,61.5C 76.5239,57.2999 83.1906,54.6332 90.5,53.5 Z"/></g>
<g><path style="opacity:1" fill="#d1baba" d="M 88.5,66.5 C 96.3494,64.641 104.016,65.4744 111.5,69C 112.381,69.7083 113.047,70.5416 113.5,71.5C 105.707,67.5871 97.3734,65.9205 88.5,66.5 Z"/></g>
<g><path style="opacity:1" fill="#fb265b" d="M 134.5,79.5 C 130.167,74.5 125.5,69.8333 120.5,65.5C 119.438,64.4246 119.438,63.4246 120.5,62.5C 122.731,63.9034 125.064,65.0701 127.5,66C 129.368,70.3649 132.368,73.5315 136.5,75.5C 136.843,77.4832 136.176,78.8166 134.5,79.5 Z"/></g>
<g><path style="opacity:1" fill="#bd9b9b" d="M 88.5,66.5 C 86.8984,68.0739 84.8984,68.7406 82.5,68.5C 84.1016,66.9261 86.1016,66.2594 88.5,66.5 Z"/></g>
<g><path style="opacity:1" fill="#ff6092" d="M 60.5,71.5 C 61.209,72.404 62.209,72.7373 63.5,72.5C 63.5,72.8333 63.5,73.1667 63.5,73.5C 62.5,74.1667 61.5,74.8333 60.5,75.5C 60.6309,74.6236 60.2975,73.9569 59.5,73.5C 52.8704,74.0145 46.8704,72.1812 41.5,68C 47.8024,69.1403 54.1357,70.3069 60.5,71.5 Z"/></g>
<g><path style="opacity:1" fill="#8a4e4e" d="M 88.5,66.5 C 97.3734,65.9205 105.707,67.5871 113.5,71.5C 118.161,74.1605 121.827,77.8272 124.5,82.5C 125.63,84.3146 126.296,86.3146 126.5,88.5C 126.657,89.8734 126.49,91.2068 126,92.5C 125.14,89.3672 123.64,86.7005 121.5,84.5C 121.5,82.5 120.5,81.5 118.5,81.5C 118.607,79.0968 117.607,77.2635 115.5,76C 112.385,73.8829 109.052,72.2163 105.5,71C 89.9082,67.0825 77.7415,71.5825 69,84.5C 68.678,82.3111 69.178,80.3111 70.5,78.5C 73.6187,74.0427 77.6187,70.7094 82.5,68.5C 84.8984,68.7406 86.8984,68.0739 88.5,66.5 Z"/></g>
<g><path style="opacity:0.208" fill="#e99eb4" d="M 186.5,70.5 C 187.5,70.5 188.5,70.5 189.5,70.5C 189.5,71.1667 189.5,71.8333 189.5,72.5C 188.566,73.5676 188.232,74.901 188.5,76.5C 187.715,74.6264 187.048,72.6264 186.5,70.5 Z"/></g>
<g><path style="opacity:1" fill="#ffbdd0" d="M 67.5,68.5 C 66.9202,70.7488 65.5869,72.4154 63.5,73.5C 63.5,73.1667 63.5,72.8333 63.5,72.5C 64.5,70.8333 65.8333,69.5 67.5,68.5 Z"/></g>
<g><path style="opacity:0.243" fill="#f6d2de" d="M 2.5,63.5 C 3.16667,67.5 3.83333,71.5 4.5,75.5C 4.5,76.1667 4.5,76.8333 4.5,77.5C 4.17057,80.2282 4.83724,82.5615 6.5,84.5C 6.32842,85.4916 6.66175,86.1583 7.5,86.5C 7.67754,87.6948 8.01087,88.8615 8.5,90C 7.68539,91.6434 6.68539,93.1434 5.5,94.5C 4.83333,94.5 4.16667,94.5 3.5,94.5C 4.09048,92.9028 5.09048,91.5695 6.5,90.5C 3.34059,84.5871 1.34059,78.2538 0.5,71.5C 0.968009,68.7666 1.63468,66.1 2.5,63.5 Z"/></g>
<g><path style="opacity:1" fill="#c30334" d="M 4.5,66.5 C 6.22001,68.6581 7.05334,71.3248 7,74.5C 8.50949,75.0897 10.0095,75.7564 11.5,76.5C 9.28845,78.3637 6.95512,78.697 4.5,77.5C 4.5,76.8333 4.5,76.1667 4.5,75.5C 4.5,72.5 4.5,69.5 4.5,66.5 Z"/></g>
<g><path style="opacity:1" fill="#ff6394" d="M 146.5,74.5 C 148.604,74.2011 150.604,74.5344 152.5,75.5C 147.893,78.2377 142.893,79.9044 137.5,80.5C 137.5,79.5 137.5,78.5 137.5,77.5C 140.855,77.3104 143.855,76.3104 146.5,74.5 Z"/></g>
<g><path style="opacity:0.004" fill="#fae9ef" d="M 189.5,72.5 C 190.167,74.5 190.833,76.5 191.5,78.5C 190.883,78.6107 190.383,78.944 190,79.5C 189.722,78.5842 189.222,77.9175 188.5,77.5C 188.5,77.1667 188.5,76.8333 188.5,76.5C 188.232,74.901 188.566,73.5676 189.5,72.5 Z"/></g>
<g><path style="opacity:0.02" fill="#eba3ba" d="M 188.5,77.5 C 189.222,77.9175 189.722,78.5842 190,79.5C 190.383,78.944 190.883,78.6107 191.5,78.5C 191.5,80.5 191.5,82.5 191.5,84.5C 190.5,84.5 189.5,84.5 188.5,84.5C 188.5,82.1667 188.5,79.8333 188.5,77.5 Z"/></g>
<g><path style="opacity:0.012" fill="#f9e4ea" d="M 11.5,80.5 C 11.5,81.1667 11.5,81.8333 11.5,82.5C 10.8333,82.5 10.5,82.8333 10.5,83.5C 10.1667,83.5 9.83333,83.5 9.5,83.5C 8.83333,83.5 8.5,83.1667 8.5,82.5C 8.5,81.5 8.5,80.5 8.5,79.5C 9.79105,79.2627 10.791,79.596 11.5,80.5 Z"/></g>
<g><path style="opacity:0.082" fill="#e99bb2" d="M 11.5,80.5 C 13.1042,81.287 13.7709,82.6203 13.5,84.5C 12.5,84.5 11.5,84.5 10.5,84.5C 9.83333,84.5 9.5,84.1667 9.5,83.5C 9.83333,83.5 10.1667,83.5 10.5,83.5C 11.1667,83.5 11.5,83.1667 11.5,82.5C 11.5,81.8333 11.5,81.1667 11.5,80.5 Z"/></g>
<g><path style="opacity:1" fill="#624649" d="M 118.5,81.5 C 120.5,81.5 121.5,82.5 121.5,84.5C 117.966,87.6051 116.133,86.9384 116,82.5C 116.671,81.7476 117.504,81.4142 118.5,81.5 Z"/></g>
<g><path style="opacity:1" fill="#ff5689" d="M 58.5,81.5 C 58.2671,83.0618 57.6005,84.3951 56.5,85.5C 55.8333,87.5 55.1667,89.5 54.5,91.5C 54.5,90.5 54.5,89.5 54.5,88.5C 47.7538,87.2796 41.0871,85.1129 34.5,82C 33.6634,80.9887 33.33,79.8221 33.5,78.5C 38.2033,79.81 42.87,81.31 47.5,83C 51.4748,83.987 55.1415,83.487 58.5,81.5 Z"/></g>
<g><path style="opacity:1" fill="#b68e8d" d="M 124.5,82.5 C 126.975,83.6874 127.975,85.6874 127.5,88.5C 127.167,88.5 126.833,88.5 126.5,88.5C 126.296,86.3146 125.63,84.3146 124.5,82.5 Z"/></g>
<g><path style="opacity:1" fill="#ff1d62" d="M 158.5,86.5 C 157.419,89.6267 156.753,92.9601 156.5,96.5C 152.907,95.532 149.407,95.1987 146,95.5C 145.833,95.1667 145.667,94.8333 145.5,94.5C 148.616,94.0799 151.283,93.0799 153.5,91.5C 154.434,90.4324 154.768,89.099 154.5,87.5C 148.949,88.2073 143.616,89.5406 138.5,91.5C 137.434,89.2986 136.767,86.9653 136.5,84.5C 136.272,82.6453 136.939,81.8119 138.5,82C 139.029,84.4286 140.363,86.2619 142.5,87.5C 149.205,86.0552 155.872,84.3885 162.5,82.5C 162.5,83.5 162.5,84.5 162.5,85.5C 160.901,85.2322 159.568,85.5655 158.5,86.5 Z"/></g>
<g><path style="opacity:0.988" fill="#c31434" d="M 8.5,82.5 C 8.5,83.1667 8.83333,83.5 9.5,83.5C 9.5,84.1667 9.83333,84.5 10.5,84.5C 11.0256,86.2303 12.0256,87.5637 13.5,88.5C 13.5,89.5 13.5,90.5 13.5,91.5C 12.5,91.5 11.5,91.5 10.5,91.5C 10.7373,90.209 10.404,89.209 9.5,88.5C 9.16667,87.5 8.5,86.8333 7.5,86.5C 6.66175,86.1583 6.32842,85.4916 6.5,84.5C 6.13068,82.0065 6.79734,81.3398 8.5,82.5 Z"/></g>
<g><path style="opacity:0.22" fill="#f8e2e8" d="M 188.5,84.5 C 189.5,84.5 190.5,84.5 191.5,84.5C 191.029,86.5786 190.363,88.5786 189.5,90.5C 188.549,89.0813 188.216,87.4147 188.5,85.5C 188.5,85.1667 188.5,84.8333 188.5,84.5 Z"/></g>
<g><path style="opacity:1" fill="#ffdfe9" d="M 158.5,86.5 C 161.488,86.1547 162.821,87.488 162.5,90.5C 162.798,93.6034 161.465,95.27 158.5,95.5C 158.5,92.5 158.5,89.5 158.5,86.5 Z"/></g>
<g><path style="opacity:0.976" fill="#c31034" d="M 186.5,90.5 C 186.5,91.1667 186.5,91.8333 186.5,92.5C 185.485,95.8463 183.485,98.513 180.5,100.5C 179.624,100.631 178.957,100.298 178.5,99.5C 181.665,94.8418 184.165,89.8418 186,84.5C 186.495,86.4727 186.662,88.4727 186.5,90.5 Z"/></g>
<g><path style="opacity:0.375" fill="#e385a0" d="M 188.5,85.5 C 188.216,87.4147 188.549,89.0813 189.5,90.5C 189.5,91.1667 189.5,91.8333 189.5,92.5C 188.5,92.5 187.5,92.5 186.5,92.5C 186.5,91.8333 186.5,91.1667 186.5,90.5C 187.167,88.8333 187.833,87.1667 188.5,85.5 Z"/></g>
<g><path style="opacity:0.776" fill="#d95776" d="M 7.5,86.5 C 8.5,86.8333 9.16667,87.5 9.5,88.5C 9.851,91.8116 8.51767,94.145 5.5,95.5C 5.5,95.1667 5.5,94.8333 5.5,94.5C 6.68539,93.1434 7.68539,91.6434 8.5,90C 8.01087,88.8615 7.67754,87.6948 7.5,86.5 Z"/></g>
<g><path style="opacity:1" fill="#fc044e" d="M 54.5,88.5 C 54.5,89.5 54.5,90.5 54.5,91.5C 53.8373,93.4726 53.5039,95.6392 53.5,98C 53.3275,101.477 53.9942,104.644 55.5,107.5C 55.5,107.833 55.5,108.167 55.5,108.5C 55.8952,114.661 54.8952,114.994 52.5,109.5C 51.503,102.532 51.1697,95.5316 51.5,88.5C 52.5,88.5 53.5,88.5 54.5,88.5 Z"/></g>
<g><path style="opacity:1" fill="#cc2251" d="M 9.5,88.5 C 10.404,89.209 10.7373,90.209 10.5,91.5C 11.5,91.5 12.5,91.5 13.5,91.5C 13.5,90.5 13.5,89.5 13.5,88.5C 14.4345,89.5676 14.7678,90.901 14.5,92.5C 13.325,92.281 12.325,92.6143 11.5,93.5C 12.6477,95.1487 13.981,96.6487 15.5,98C 22.8697,101.683 29.5364,106.35 35.5,112C 38.3926,113.149 41.3926,113.649 44.5,113.5C 42.2524,116.982 39.7524,120.316 37,123.5C 36.338,125.813 35.838,128.146 35.5,130.5C 33.7345,133.123 33.0679,136.123 33.5,139.5C 36.9826,159.753 48.9826,168.586 69.5,166C 77.1843,162.664 83.5177,157.664 88.5,151C 89.448,150.517 90.448,150.351 91.5,150.5C 91.5393,153.535 92.5393,156.202 94.5,158.5C 92.7748,158.843 92.2748,159.843 93,161.5C 99.2903,168.89 107.124,173.557 116.5,175.5C 112.582,176.525 112.582,177.525 116.5,178.5C 115.209,178.263 114.209,178.596 113.5,179.5C 113.167,180.5 112.5,181.167 111.5,181.5C 111.53,180.503 111.03,179.836 110,179.5C 108.401,180.071 107.234,181.071 106.5,182.5C 106.5,181.5 106.5,180.5 106.5,179.5C 104.302,179.12 102.635,179.787 101.5,181.5C 100.414,181.62 99.7472,182.287 99.5,183.5C 99.5427,184.416 99.8761,185.083 100.5,185.5C 100.5,185.833 100.5,186.167 100.5,186.5C 93.2142,187.265 85.8809,187.765 78.5,188C 79.5707,188.852 80.5707,189.685 81.5,190.5C 78.272,189.614 75.272,188.281 72.5,186.5C 70.9731,186.573 69.9731,185.906 69.5,184.5C 70.9669,185.292 72.3002,185.292 73.5,184.5C 70.1458,181.979 67.3124,178.979 65,175.5C 64.5172,176.448 64.3505,177.448 64.5,178.5C 63.8333,178.5 63.5,178.167 63.5,177.5C 63.3059,175.088 61.9726,174.088 59.5,174.5C 60.3984,173.842 61.3984,173.176 62.5,172.5C 59.8631,171.379 57.1965,171.379 54.5,172.5C 52.9121,171.99 51.7455,170.99 51,169.5C 50.0743,173.375 47.9076,174.375 44.5,172.5C 45.8333,172.5 47.1667,172.5 48.5,172.5C 48.2407,168.932 46.2407,167.599 42.5,168.5C 42.5,169.5 42.5,170.5 42.5,171.5C 41.596,170.791 41.2627,169.791 41.5,168.5C 38.7835,168.322 36.1168,167.822 33.5,167C 31.6667,164.5 29.8333,162 28,159.5C 26.2303,153.36 25.0637,147.027 24.5,140.5C 22.9967,144.355 22.3301,148.355 22.5,152.5C 21.5184,149.038 21.185,145.371 21.5,141.5C 20.8333,140.833 20.1667,140.167 19.5,139.5C 20.5,139.5 21.5,139.5 22.5,139.5C 22.67,138.178 22.3366,137.011 21.5,136C 12.3714,134.322 6.87145,128.822 5,119.5C 4.66667,113.5 4.33333,107.5 4,101.5C 2.58449,107.715 2.08449,114.048 2.5,120.5C 2.16667,120.5 1.83333,120.5 1.5,120.5C 0.383652,115.151 0.383652,109.817 1.5,104.5C 1.34332,103.127 1.50999,101.793 2,100.5C 2.90216,98.5692 4.06883,96.9025 5.5,95.5C 8.51767,94.145 9.851,91.8116 9.5,88.5 Z"/></g>
<g><path style="opacity:1" fill="#ff5388" d="M 153.5,91.5 C 148.609,92.0099 143.942,93.0099 139.5,94.5C 140.018,99.927 139.018,104.927 136.5,109.5C 136.674,107.139 137.007,104.806 137.5,102.5C 138.482,99.0381 138.815,95.3714 138.5,91.5C 143.616,89.5406 148.949,88.2073 154.5,87.5C 154.768,89.099 154.434,90.4324 153.5,91.5 Z"/></g>
<g><path style="opacity:0.173" fill="#ecacbf" d="M 3.5,94.5 C 4.16667,94.5 4.83333,94.5 5.5,94.5C 5.5,94.8333 5.5,95.1667 5.5,95.5C 4.06883,96.9025 2.90216,98.5692 2,100.5C 1.50999,101.793 1.34332,103.127 1.5,104.5C 0.833333,104.833 0.166667,105.167 -0.5,105.5C -0.5,102.833 -0.5,100.167 -0.5,97.5C 1.14054,96.853 2.47387,95.853 3.5,94.5 Z"/></g>
<g><path style="opacity:1" fill="#ffa7c3" d="M 56.5,85.5 C 56.1667,91.5 55.8333,97.5 55.5,103.5C 54.5166,99.7016 54.1832,95.7016 54.5,91.5C 55.1667,89.5 55.8333,87.5 56.5,85.5 Z"/></g>
<g><path style="opacity:1" fill="#986565" d="M 118.5,81.5 C 117.504,81.4142 116.671,81.7476 116,82.5C 116.133,86.9384 117.966,87.6051 121.5,84.5C 123.64,86.7005 125.14,89.3672 126,92.5C 126.49,91.2068 126.657,89.8734 126.5,88.5C 126.833,88.5 127.167,88.5 127.5,88.5C 129.897,94.6162 130.063,100.95 128,107.5C 127.8,109.32 126.966,110.653 125.5,111.5C 125.995,109.548 126.328,107.548 126.5,105.5C 126.415,103.667 125.748,102.334 124.5,101.5C 120.201,99.4064 118.201,100.74 118.5,105.5C 120.167,105.5 121.833,105.5 123.5,105.5C 122.446,111.558 119.113,115.891 113.5,118.5C 113.853,116.365 113.02,115.032 111,114.5C 107.914,115.915 107.747,117.581 110.5,119.5C 108.636,121.218 106.303,122.385 103.5,123C 97.4611,123.337 91.4611,124.003 85.5,125C 90.7081,126.397 96.0414,126.897 101.5,126.5C 97.3656,127.485 93.0323,127.818 88.5,127.5C 85.5465,126.572 82.5465,125.739 79.5,125C 78.6195,124.292 77.9528,123.458 77.5,122.5C 79.5713,124.1 81.9047,124.6 84.5,124C 81.4025,123.062 79.0691,121.228 77.5,118.5C 79.1765,117.817 79.8432,116.483 79.5,114.5C 77.6203,114.229 76.287,114.896 75.5,116.5C 74.5041,116.586 73.6708,116.252 73,115.5C 71.4464,111.087 69.9464,106.753 68.5,102.5C 69.209,101.596 70.209,101.263 71.5,101.5C 71.9754,98.6874 70.9754,96.6874 68.5,95.5C 68.6367,91.886 68.6367,88.5527 68.5,85.5C 66.336,88.6055 65.0027,91.9389 64.5,95.5C 64.0087,88.8422 66.0087,83.1756 70.5,78.5C 69.178,80.3111 68.678,82.3111 69,84.5C 77.7415,71.5825 89.9082,67.0825 105.5,71C 109.052,72.2163 112.385,73.8829 115.5,76C 117.607,77.2635 118.607,79.0968 118.5,81.5 Z"/></g>
<g><path style="opacity:1" fill="#5e4346" d="M 108.5,94.5 C 109.5,94.5 110.5,94.5 111.5,94.5C 111.5,95.8333 111.5,97.1667 111.5,98.5C 110.167,98.5 108.833,98.5 107.5,98.5C 107.433,97.0413 107.766,95.7079 108.5,94.5 Z"/></g>
<g><path style="opacity:1" fill="#65474a" d="M 80.5,91.5 C 84.0681,91.7593 85.4015,93.7593 84.5,97.5C 82.8333,97.5 81.1667,97.5 79.5,97.5C 79.3253,95.3792 79.6586,93.3792 80.5,91.5 Z"/></g>
<g><path style="opacity:1" fill="#5f4246" d="M 103.5,83.5 C 104.833,83.5 106.167,83.5 107.5,83.5C 107.5,84.8333 107.5,86.1667 107.5,87.5C 106.167,87.5 104.833,87.5 103.5,87.5C 103.5,86.1667 103.5,84.8333 103.5,83.5 Z"/></g>
<g><path style="opacity:1" fill="#68484b" d="M 90.5,82.5 C 95.1585,82.0146 96.4919,83.848 94.5,88C 89.7282,88.8104 88.3948,86.9771 90.5,82.5 Z"/></g>
<g><path style="opacity:1" fill="#785354" d="M 78.5,77.5 C 80.5,77.5 82.5,77.5 84.5,77.5C 85.4801,83.2967 83.3135,85.2967 78,83.5C 77.3224,81.4024 77.4891,79.4024 78.5,77.5 Z"/></g>
<g><path style="opacity:1" fill="#5b4144" d="M 96.5,72.5 C 97.8333,72.5 99.1667,72.5 100.5,72.5C 100.5,73.8333 100.5,75.1667 100.5,76.5C 97.5,76.8333 96.1667,75.5 96.5,72.5 Z"/></g>
<g><path style="opacity:1" fill="#fe3a76" d="M 54.5,91.5 C 54.1832,95.7016 54.5166,99.7016 55.5,103.5C 55.5,104.833 55.5,106.167 55.5,107.5C 53.9942,104.644 53.3275,101.477 53.5,98C 53.5039,95.6392 53.8373,93.4726 54.5,91.5 Z"/></g>
<g><path style="opacity:1" fill="#594043" d="M 94.5,96.5 C 97.5,96.1667 98.8333,97.5 98.5,100.5C 95.5,100.833 94.1667,99.5 94.5,96.5 Z"/></g>
<g><path style="opacity:1" fill="#654447" d="M 68.5,95.5 C 70.9754,96.6874 71.9754,98.6874 71.5,101.5C 70.209,101.263 69.209,101.596 68.5,102.5C 66.5159,102.516 65.5159,101.516 65.5,99.5C 65.7538,97.5828 66.7538,96.2495 68.5,95.5 Z"/></g>
<g><path style="opacity:1" fill="#ffa9c3" d="M 134.5,81.5 C 135.167,82.5 135.833,83.5 136.5,84.5C 136.767,86.9653 137.434,89.2986 138.5,91.5C 138.815,95.3714 138.482,99.0381 137.5,102.5C 137.622,95.3255 136.622,88.3255 134.5,81.5 Z"/></g>
<g><path style="opacity:0.235" fill="#f6d3dd" d="M 186.5,92.5 C 187.5,92.5 188.5,92.5 189.5,92.5C 187.561,96.4343 185.228,100.101 182.5,103.5C 181.167,103.5 180.5,102.833 180.5,101.5C 180.5,101.167 180.5,100.833 180.5,100.5C 183.485,98.513 185.485,95.8463 186.5,92.5 Z"/></g>
<g><path style="opacity:1" fill="#66474a" d="M 124.5,101.5 C 124.768,103.099 124.434,104.432 123.5,105.5C 121.833,105.5 120.167,105.5 118.5,105.5C 118.201,100.74 120.201,99.4064 124.5,101.5 Z"/></g>
<g><path style="opacity:0.108" fill="#e99fb5" d="M 180.5,101.5 C 180.5,102.833 181.167,103.5 182.5,103.5C 183.473,105.149 184.473,106.816 185.5,108.5C 184.566,109.568 184.232,110.901 184.5,112.5C 184.167,112.5 183.833,112.5 183.5,112.5C 183.567,111.041 183.234,109.708 182.5,108.5C 181.741,106.564 180.741,104.731 179.5,103C 179.57,102.235 179.903,101.735 180.5,101.5 Z"/></g>
<g><path style="opacity:1" fill="#66474a" d="M 81.5,104.5 C 83.1667,104.5 84.8333,104.5 86.5,104.5C 86.5,106.5 86.5,108.5 86.5,110.5C 82.0917,110.938 80.4251,108.938 81.5,104.5 Z"/></g>
<g><path style="opacity:1" fill="#fd1f5c" d="M 139.5,94.5 C 140.833,94.5 142.167,94.5 143.5,94.5C 143.162,103.19 140.662,111.19 136,118.5C 132.822,121.82 130.322,125.487 128.5,129.5C 126.901,129.768 125.568,129.434 124.5,128.5C 124.833,127.833 125.167,127.167 125.5,126.5C 125.833,125.5 126.5,124.833 127.5,124.5C 129.587,123.415 130.92,121.749 131.5,119.5C 133.969,118.393 134.969,116.393 134.5,113.5C 134.66,111.847 135.326,110.514 136.5,109.5C 139.018,104.927 140.018,99.927 139.5,94.5 Z"/></g>
<g><path style="opacity:0.078" fill="#f5d1dc" d="M 185.5,108.5 C 186.167,110.167 186.833,111.833 187.5,113.5C 186.5,113.5 185.5,113.5 184.5,113.5C 184.5,113.167 184.5,112.833 184.5,112.5C 184.232,110.901 184.566,109.568 185.5,108.5 Z"/></g>
<g><path style="opacity:0.99" fill="#c40d35" d="M 19.5,139.5 C 17.5739,138.514 15.5739,137.514 13.5,136.5C 11.1667,134.5 8.83333,132.5 6.5,130.5C 4.9677,127.234 3.63437,123.901 2.5,120.5C 2.08449,114.048 2.58449,107.715 4,101.5C 4.33333,107.5 4.66667,113.5 5,119.5C 6.87145,128.822 12.3714,134.322 21.5,136C 22.3366,137.011 22.67,138.178 22.5,139.5C 21.5,139.5 20.5,139.5 19.5,139.5 Z"/></g>
<g><path style="opacity:1" fill="#864948" d="M 68.5,95.5 C 66.7538,96.2495 65.7538,97.5828 65.5,99.5C 65.5159,101.516 66.5159,102.516 68.5,102.5C 69.9464,106.753 71.4464,111.087 73,115.5C 73.6708,116.252 74.5041,116.586 75.5,116.5C 75.8333,117.5 76.5,118.167 77.5,118.5C 79.0691,121.228 81.4025,123.062 84.5,124C 81.9047,124.6 79.5713,124.1 77.5,122.5C 67.6513,116.346 63.3179,107.346 64.5,95.5C 65.0027,91.9389 66.336,88.6055 68.5,85.5C 68.6367,88.5527 68.6367,91.886 68.5,95.5 Z"/></g>
<g><path style="opacity:0.694" fill="#dd6a8a" d="M 1.5,104.5 C 0.383652,109.817 0.383652,115.151 1.5,120.5C 0.833333,119.833 0.166667,119.167 -0.5,118.5C -0.5,114.167 -0.5,109.833 -0.5,105.5C 0.166667,105.167 0.833333,104.833 1.5,104.5 Z"/></g>
<g><path style="opacity:1" fill="#65494c" d="M 77.5,118.5 C 76.5,118.167 75.8333,117.5 75.5,116.5C 76.287,114.896 77.6203,114.229 79.5,114.5C 79.8432,116.483 79.1765,117.817 77.5,118.5 Z"/></g>
<g><path style="opacity:0.165" fill="#e3839e" d="M 184.5,113.5 C 185.5,113.5 186.5,113.5 187.5,113.5C 187.5,114.833 187.5,116.167 187.5,117.5C 186.5,117.5 185.5,117.5 184.5,117.5C 184.5,116.167 184.5,114.833 184.5,113.5 Z"/></g>
<g><path style="opacity:1" fill="#cb2251" d="M 155.5,113.5 C 159.872,115.258 164.372,117.258 169,119.5C 172.745,120.894 176.578,121.894 180.5,122.5C 180.919,126.773 180.252,130.773 178.5,134.5C 176.066,137.171 173.733,140.004 171.5,143C 167.608,143.73 164.275,145.397 161.5,148C 164.221,148.602 166.887,148.435 169.5,147.5C 169.5,147.833 169.5,148.167 169.5,148.5C 167.694,149.024 166.028,149.691 164.5,150.5C 159.139,150.564 157.139,153.231 158.5,158.5C 158.737,159.791 158.404,160.791 157.5,161.5C 157.82,158.102 157.487,154.768 156.5,151.5C 153.773,172.709 141.773,181.542 120.5,178C 119.142,177.066 117.808,176.232 116.5,175.5C 107.124,173.557 99.2903,168.89 93,161.5C 92.2748,159.843 92.7748,158.843 94.5,158.5C 103.715,170.064 115.381,173.231 129.5,168C 132.266,166.629 134.599,164.796 136.5,162.5C 137.239,162.631 137.906,162.464 138.5,162C 150.532,149.981 152.699,136.481 145,121.5C 144.51,120.207 144.343,118.873 144.5,117.5C 146.199,117.66 147.866,117.494 149.5,117C 151.405,115.579 153.405,114.412 155.5,113.5 Z"/></g>
<g><path style="opacity:1" fill="#63474a" d="M 113.5,118.5 C 112.791,119.404 111.791,119.737 110.5,119.5C 107.747,117.581 107.914,115.915 111,114.5C 113.02,115.032 113.853,116.365 113.5,118.5 Z"/></g>
<g><path style="opacity:1" fill="#864848" d="M 124.5,101.5 C 125.748,102.334 126.415,103.667 126.5,105.5C 126.328,107.548 125.995,109.548 125.5,111.5C 122.848,115.817 119.515,119.484 115.5,122.5C 112.455,123.279 109.789,124.613 107.5,126.5C 106.833,126.5 106.167,126.5 105.5,126.5C 104.167,126.5 102.833,126.5 101.5,126.5C 96.0414,126.897 90.7081,126.397 85.5,125C 91.4611,124.003 97.4611,123.337 103.5,123C 106.303,122.385 108.636,121.218 110.5,119.5C 111.791,119.737 112.791,119.404 113.5,118.5C 119.113,115.891 122.446,111.558 123.5,105.5C 124.434,104.432 124.768,103.099 124.5,101.5 Z"/></g>
<g><path style="opacity:1" fill="#fe5e86" d="M 134.5,113.5 C 134.969,116.393 133.969,118.393 131.5,119.5C 131.992,117.181 132.992,115.181 134.5,113.5 Z"/></g>
<g><path style="opacity:1" fill="#614548" d="M 92.5,117.5 C 95.9103,117.384 97.2436,119.05 96.5,122.5C 92.065,123.078 90.7317,121.411 92.5,117.5 Z"/></g>
<g><path style="opacity:1" fill="#c7153f" d="M 182.5,108.5 C 183.234,109.708 183.567,111.041 183.5,112.5C 183.5,118.5 183.5,124.5 183.5,130.5C 183.5,131.5 183.5,132.5 183.5,133.5C 182.833,133.833 182.167,134.167 181.5,134.5C 181.631,133.761 181.464,133.094 181,132.5C 180.292,133.381 179.458,134.047 178.5,134.5C 180.252,130.773 180.919,126.773 180.5,122.5C 180.666,118.486 180.499,114.486 180,110.5C 178.422,109.289 178.255,107.955 179.5,106.5C 180.518,107.193 181.518,107.859 182.5,108.5 Z"/></g>
<g><path style="opacity:0.364" fill="#d34169" d="M 183.5,112.5 C 183.833,112.5 184.167,112.5 184.5,112.5C 184.5,112.833 184.5,113.167 184.5,113.5C 184.5,114.833 184.5,116.167 184.5,117.5C 185.5,117.5 186.5,117.5 187.5,117.5C 187.5,119.833 187.5,122.167 187.5,124.5C 186.5,124.5 185.5,124.5 184.5,124.5C 184.5,126.167 184.5,127.833 184.5,129.5C 184.5,130.167 184.167,130.5 183.5,130.5C 183.5,124.5 183.5,118.5 183.5,112.5 Z"/></g>
<g><path style="opacity:1" fill="#ff769d" d="M 131.5,119.5 C 130.92,121.749 129.587,123.415 127.5,124.5C 128.08,122.251 129.413,120.585 131.5,119.5 Z"/></g>
<g><path style="opacity:0.243" fill="#eaa0b4" d="M 1.5,120.5 C 1.83333,120.5 2.16667,120.5 2.5,120.5C 3.63437,123.901 4.9677,127.234 6.5,130.5C 5.54163,130.047 4.7083,129.381 4,128.5C 2.40856,126.073 1.57523,123.407 1.5,120.5 Z"/></g>
<g><path style="opacity:1" fill="#d4bbbb" d="M 115.5,122.5 C 113.469,124.755 110.802,126.088 107.5,126.5C 109.789,124.613 112.455,123.279 115.5,122.5 Z"/></g>
<g><path style="opacity:0.239" fill="#e48ca5" d="M 187.5,124.5 C 187.5,126.167 187.5,127.833 187.5,129.5C 186.5,129.5 185.5,129.5 184.5,129.5C 184.5,127.833 184.5,126.167 184.5,124.5C 185.5,124.5 186.5,124.5 187.5,124.5 Z"/></g>
<g><path style="opacity:1" fill="#ff4a7f" d="M 63.5,123.5 C 65.5,124.833 67.1667,126.5 68.5,128.5C 67.5,128.5 66.5,128.5 65.5,128.5C 64.8041,132.881 62.4707,136.214 58.5,138.5C 60.0663,135.588 62.0663,132.921 64.5,130.5C 64.0431,129.702 63.3764,129.369 62.5,129.5C 63.1408,128.518 63.8075,127.518 64.5,126.5C 63.8728,125.583 63.5394,124.583 63.5,123.5 Z"/></g>
<g><path style="opacity:1" fill="#c7aaaa" d="M 101.5,126.5 C 102.833,126.5 104.167,126.5 105.5,126.5C 102.474,128.019 99.1411,128.685 95.5,128.5C 92.9746,128.497 90.6413,128.163 88.5,127.5C 93.0323,127.818 97.3656,127.485 101.5,126.5 Z"/></g>
<g><path style="opacity:1" fill="#ff83a8" d="M 125.5,126.5 C 125.167,127.167 124.833,127.833 124.5,128.5C 122.95,129.441 121.284,130.107 119.5,130.5C 121.147,128.674 123.147,127.34 125.5,126.5 Z"/></g>
<g><path style="opacity:1" fill="#ff1752" d="M 69.5,129.5 C 70.609,129.557 71.609,129.89 72.5,130.5C 72.9731,131.906 73.9731,132.573 75.5,132.5C 76.6857,133.961 76.6857,135.295 75.5,136.5C 73.1012,134.634 70.4345,133.301 67.5,132.5C 67.2852,130.821 67.9519,129.821 69.5,129.5 Z"/></g>
<g><path style="opacity:1" fill="#ff96b5" d="M 72.5,130.5 C 74.0269,130.427 75.0269,131.094 75.5,132.5C 73.9731,132.573 72.9731,131.906 72.5,130.5 Z"/></g>
<g><path style="opacity:0.004" fill="#fbecf1" d="M 184.5,129.5 C 185.5,129.5 186.5,129.5 187.5,129.5C 186.174,134.16 183.841,138.16 180.5,141.5C 180.629,139.784 180.962,138.117 181.5,136.5C 182.906,136.027 183.573,135.027 183.5,133.5C 183.5,132.5 183.5,131.5 183.5,130.5C 184.167,130.5 184.5,130.167 184.5,129.5 Z"/></g>
<g><path style="opacity:0.435" fill="#e99cb0" d="M 183.5,133.5 C 183.573,135.027 182.906,136.027 181.5,136.5C 181.5,135.833 181.5,135.167 181.5,134.5C 182.167,134.167 182.833,133.833 183.5,133.5 Z"/></g>
<g><path style="opacity:1" fill="#ff94b8" d="M 38.5,132.5 C 37.7814,134.764 37.448,137.097 37.5,139.5C 38.5,139.5 39.5,139.5 40.5,139.5C 39.4324,140.434 38.099,140.768 36.5,140.5C 36.3367,138.143 36.5034,135.81 37,133.5C 37.3826,132.944 37.8826,132.611 38.5,132.5 Z"/></g>
<g><path style="opacity:0.012" fill="#fbe7ef" d="M -0.5,118.5 C 0.166667,119.167 0.833333,119.833 1.5,120.5C 1.57523,123.407 2.40856,126.073 4,128.5C 4.7083,129.381 5.54163,130.047 6.5,130.5C 8.83333,132.5 11.1667,134.5 13.5,136.5C 13.5,137.5 13.5,138.5 13.5,139.5C 8.1275,135.129 3.46083,130.129 -0.5,124.5C -0.5,122.5 -0.5,120.5 -0.5,118.5 Z"/></g>
<g><path style="opacity:1" fill="#ffeaf1" d="M 38.5,132.5 C 40.3079,133.918 40.9746,135.918 40.5,138.5C 40.5,138.833 40.5,139.167 40.5,139.5C 39.5,139.5 38.5,139.5 37.5,139.5C 37.448,137.097 37.7814,134.764 38.5,132.5 Z"/></g>
<g><path style="opacity:1" fill="#ff78a0" d="M 38.5,132.5 C 39.209,131.596 40.209,131.263 41.5,131.5C 41.8016,134.059 41.4682,136.393 40.5,138.5C 40.9746,135.918 40.3079,133.918 38.5,132.5 Z"/></g>
<g><path style="opacity:0.467" fill="#e791ab" d="M 13.5,136.5 C 15.5739,137.514 17.5739,138.514 19.5,139.5C 20.1667,140.167 20.8333,140.833 21.5,141.5C 20.5084,141.328 19.8417,141.662 19.5,142.5C 17.4561,141.492 15.4561,140.492 13.5,139.5C 13.5,138.5 13.5,137.5 13.5,136.5 Z"/></g>
<g><path style="opacity:1" fill="#fa255c" d="M 83.5,136.5 C 90.5,136.5 97.5,136.5 104.5,136.5C 106.167,136.5 107.833,136.5 109.5,136.5C 109.5,137.5 109.5,138.5 109.5,139.5C 104.42,139.878 99.42,140.545 94.5,141.5C 93.5,141.5 92.5,141.5 91.5,141.5C 88.1106,139.724 84.4439,138.391 80.5,137.5C 81.325,136.614 82.325,136.281 83.5,136.5 Z"/></g>
<g><path style="opacity:1" fill="#f8dce4" d="M 168.5,137.5 C 169.833,137.5 171.167,137.5 172.5,137.5C 172.185,141.8 169.851,143.467 165.5,142.5C 165.31,140.041 166.31,138.374 168.5,137.5 Z"/></g>
<g><path style="opacity:1" fill="#ff6f9c" d="M 62.5,129.5 C 63.3764,129.369 64.0431,129.702 64.5,130.5C 62.0663,132.921 60.0663,135.588 58.5,138.5C 55.6662,140.502 53.3329,143.002 51.5,146C 50.5165,146.591 49.8499,146.257 49.5,145C 53.3082,139.361 57.6416,134.195 62.5,129.5 Z"/></g>
<g><path style="opacity:1" fill="#bd0c22" d="M 181.5,134.5 C 181.5,135.167 181.5,135.833 181.5,136.5C 178.5,140.167 175.167,143.5 171.5,146.5C 171.158,147.338 170.492,147.672 169.5,147.5C 166.887,148.435 164.221,148.602 161.5,148C 164.275,145.397 167.608,143.73 171.5,143C 173.733,140.004 176.066,137.171 178.5,134.5C 179.458,134.047 180.292,133.381 181,132.5C 181.464,133.094 181.631,133.761 181.5,134.5 Z"/></g>
<g><path style="opacity:1" fill="#ff6795" d="M 119.5,130.5 C 117.135,132.244 114.802,134.077 112.5,136C 116.608,141.779 121.108,147.279 126,152.5C 126.749,153.635 126.583,154.635 125.5,155.5C 120.821,150.321 115.988,145.321 111,140.5C 110.79,138.942 110.29,137.609 109.5,136.5C 107.833,136.5 106.167,136.5 104.5,136.5C 104.611,135.883 104.944,135.383 105.5,135C 110.221,133.816 114.888,132.316 119.5,130.5 Z"/></g>
<g><path style="opacity:1" fill="#ff6d9b" d="M 124.5,130.5 C 125.552,130.351 126.552,130.517 127.5,131C 131.181,136.011 134.848,141.011 138.5,146C 138.167,146.5 137.833,147 137.5,147.5C 133.177,143.008 129.01,138.341 125,133.5C 124.517,132.552 124.351,131.552 124.5,130.5 Z"/></g>
<g><path style="opacity:0.244" fill="#e486a2" d="M 181.5,136.5 C 180.962,138.117 180.629,139.784 180.5,141.5C 179.216,144.117 177.216,146.117 174.5,147.5C 173.791,146.596 172.791,146.263 171.5,146.5C 175.167,143.5 178.5,140.167 181.5,136.5 Z"/></g>
<g><path style="opacity:0.141" fill="#f4cedb" d="M 21.5,141.5 C 21.185,145.371 21.5184,149.038 22.5,152.5C 22.4003,155.108 23.0669,157.442 24.5,159.5C 25.038,161.117 25.3713,162.784 25.5,164.5C 24.5416,164.047 23.7083,163.381 23,162.5C 19.6311,156.142 18.4645,149.475 19.5,142.5C 19.8417,141.662 20.5084,141.328 21.5,141.5 Z"/></g>
<g><path style="opacity:1" fill="#ff6897" d="M 75.5,132.5 C 77.8239,133.656 80.1572,134.656 82.5,135.5C 80.8008,135.34 79.1341,135.506 77.5,136C 78.5171,137.049 78.6838,138.216 78,139.5C 73.7274,145.059 69.2274,150.392 64.5,155.5C 63.4173,154.635 63.2506,153.635 64,152.5C 68.5783,147.667 72.4116,142.333 75.5,136.5C 76.6857,135.295 76.6857,133.961 75.5,132.5 Z"/></g>
<g><path style="opacity:0.114" fill="#f3c5d6" d="M 171.5,146.5 C 172.791,146.263 173.791,146.596 174.5,147.5C 173.055,149.063 171.389,150.396 169.5,151.5C 169.5,150.5 169.5,149.5 169.5,148.5C 169.5,148.167 169.5,147.833 169.5,147.5C 170.492,147.672 171.158,147.338 171.5,146.5 Z"/></g>
<g><path style="opacity:0.055" fill="#e689a7" d="M 169.5,148.5 C 169.5,149.5 169.5,150.5 169.5,151.5C 168.5,151.5 167.5,151.5 166.5,151.5C 166.158,150.662 165.492,150.328 164.5,150.5C 166.028,149.691 167.694,149.024 169.5,148.5 Z"/></g>
<g><path style="opacity:0.031" fill="#fcf1f5" d="M 164.5,150.5 C 165.492,150.328 166.158,150.662 166.5,151.5C 166.167,152.5 165.5,153.167 164.5,153.5C 164.5,152.5 164.5,151.5 164.5,150.5 Z"/></g>
<g><path style="opacity:1" fill="#ffabc5" d="M 141.5,154.5 C 141.631,153.624 141.298,152.957 140.5,152.5C 139.583,153.127 138.583,153.461 137.5,153.5C 138.635,151.787 140.302,151.12 142.5,151.5C 142.737,152.791 142.404,153.791 141.5,154.5 Z"/></g>
<g><path style="opacity:1" fill="#ffe2ec" d="M 141.5,154.5 C 140.34,155.265 139.34,156.265 138.5,157.5C 137.311,158.429 135.978,158.762 134.5,158.5C 134.31,156.041 135.31,154.374 137.5,153.5C 138.583,153.461 139.583,153.127 140.5,152.5C 141.298,152.957 141.631,153.624 141.5,154.5 Z"/></g>
<g><path style="opacity:0.541" fill="#e796ae" d="M 164.5,150.5 C 164.5,151.5 164.5,152.5 164.5,153.5C 163.5,153.5 162.5,153.5 161.5,153.5C 159.972,154.802 158.972,156.469 158.5,158.5C 157.139,153.231 159.139,150.564 164.5,150.5 Z"/></g>
<g><path style="opacity:0.984" fill="#c40f35" d="M 42.5,171.5 C 43.1667,171.833 43.8333,172.167 44.5,172.5C 47.9076,174.375 50.0743,173.375 51,169.5C 51.7455,170.99 52.9121,171.99 54.5,172.5C 57.1965,171.379 59.8631,171.379 62.5,172.5C 61.3984,173.176 60.3984,173.842 59.5,174.5C 54.8809,175.314 50.2142,175.647 45.5,175.5C 44.8333,175.5 44.1667,175.5 43.5,175.5C 41.9724,174.691 40.3057,174.024 38.5,173.5C 38.1583,172.662 37.4916,172.328 36.5,172.5C 34.557,170.835 32.557,169.168 30.5,167.5C 29.5,167.167 28.8333,166.5 28.5,165.5C 27.3434,163.322 26.0101,161.322 24.5,159.5C 23.0669,157.442 22.4003,155.108 22.5,152.5C 22.3301,148.355 22.9967,144.355 24.5,140.5C 25.0637,147.027 26.2303,153.36 28,159.5C 29.8333,162 31.6667,164.5 33.5,167C 36.1168,167.822 38.7835,168.322 41.5,168.5C 41.2627,169.791 41.596,170.791 42.5,171.5 Z"/></g>
<g><path style="opacity:1" fill="#fa2b6f" d="M 33.5,139.5 C 34.6552,142.288 36.6552,144.455 39.5,146C 38.9781,146.561 38.6448,147.228 38.5,148C 40.7297,152.236 43.7297,155.903 47.5,159C 67.2146,165.582 81.8812,159.748 91.5,141.5C 92.5,141.5 93.5,141.5 94.5,141.5C 95.7175,142.161 97.0508,142.828 98.5,143.5C 97.1287,145.857 95.7954,148.19 94.5,150.5C 101.393,165.519 112.726,170.019 128.5,164C 130.715,160.025 133.382,159.525 136.5,162.5C 134.599,164.796 132.266,166.629 129.5,168C 115.381,173.231 103.715,170.064 94.5,158.5C 92.5393,156.202 91.5393,153.535 91.5,150.5C 90.448,150.351 89.448,150.517 88.5,151C 83.5177,157.664 77.1843,162.664 69.5,166C 48.9826,168.586 36.9826,159.753 33.5,139.5 Z"/></g>
<g><path style="opacity:0.592" fill="#e17792" d="M 24.5,159.5 C 26.0101,161.322 27.3434,163.322 28.5,165.5C 27.5,165.5 26.5,165.5 25.5,165.5C 25.5,165.167 25.5,164.833 25.5,164.5C 25.3713,162.784 25.038,161.117 24.5,159.5 Z"/></g>
<g><path style="opacity:0.094" fill="#f7dbe6" d="M 161.5,153.5 C 161.564,161.356 158.898,168.023 153.5,173.5C 153.629,171.784 153.962,170.117 154.5,168.5C 156.075,166.453 157.075,164.119 157.5,161.5C 158.404,160.791 158.737,159.791 158.5,158.5C 158.972,156.469 159.972,154.802 161.5,153.5 Z"/></g>
<g><path style="opacity:1" fill="#bd062d" d="M 42.5,164.5 C 44.9775,164.051 46.9775,164.717 48.5,166.5C 46.9255,167.631 45.2588,167.798 43.5,167C 42.7476,166.329 42.4142,165.496 42.5,164.5 Z"/></g>
<g><path style="opacity:0.055" fill="#fae8ef" d="M 25.5,165.5 C 26.5,165.5 27.5,165.5 28.5,165.5C 28.8333,166.5 29.5,167.167 30.5,167.5C 31.2341,168.708 31.5674,170.041 31.5,171.5C 29.1394,169.806 27.1394,167.806 25.5,165.5 Z"/></g>
<g><path style="opacity:1" fill="#f7d8e0" d="M 44.5,172.5 C 43.8333,172.167 43.1667,171.833 42.5,171.5C 42.5,170.5 42.5,169.5 42.5,168.5C 46.2407,167.599 48.2407,168.932 48.5,172.5C 47.1667,172.5 45.8333,172.5 44.5,172.5 Z"/></g>
<g><path style="opacity:0.135" fill="#db5e81" d="M 30.5,167.5 C 32.557,169.168 34.557,170.835 36.5,172.5C 35.5084,172.328 34.8417,172.662 34.5,173.5C 33.2223,173.218 32.2223,172.551 31.5,171.5C 31.5674,170.041 31.2341,168.708 30.5,167.5 Z"/></g>
<g><path style="opacity:0.102" fill="#eca6ba" d="M 154.5,168.5 C 153.962,170.117 153.629,171.784 153.5,173.5C 151.363,176.973 148.363,179.306 144.5,180.5C 144.5,179.5 144.5,178.5 144.5,177.5C 148.039,174.787 151.372,171.787 154.5,168.5 Z"/></g>
<g><path style="opacity:0.094" fill="#f2c2d5" d="M 36.5,172.5 C 37.4916,172.328 38.1583,172.662 38.5,173.5C 38.5,174.5 38.5,175.5 38.5,176.5C 37.1283,175.488 35.795,174.488 34.5,173.5C 34.8417,172.662 35.5084,172.328 36.5,172.5 Z"/></g>
<g><path style="opacity:0.212" fill="#e487a5" d="M 38.5,173.5 C 40.3057,174.024 41.9724,174.691 43.5,175.5C 42.209,175.263 41.209,175.596 40.5,176.5C 39.8333,176.5 39.1667,176.5 38.5,176.5C 38.5,175.5 38.5,174.5 38.5,173.5 Z"/></g>
<g><path style="opacity:0.765" fill="#d4456c" d="M 59.5,174.5 C 61.9726,174.088 63.3059,175.088 63.5,177.5C 61.8583,175.919 59.8583,175.253 57.5,175.5C 57.5,176.5 57.5,177.5 57.5,178.5C 56.5,178.5 55.5,178.5 54.5,178.5C 51.7967,176.89 48.7967,175.89 45.5,175.5C 50.2142,175.647 54.8809,175.314 59.5,174.5 Z"/></g>
<g><path style="opacity:0.114" fill="#fae4ed" d="M 40.5,176.5 C 41.209,175.596 42.209,175.263 43.5,175.5C 43.5,176.5 43.5,177.5 43.5,178.5C 42.5,177.833 41.5,177.167 40.5,176.5 Z"/></g>
<g><path style="opacity:0.451" fill="#e99bb2" d="M 43.5,175.5 C 44.1667,175.5 44.8333,175.5 45.5,175.5C 48.7967,175.89 51.7967,176.89 54.5,178.5C 53.8333,178.833 53.1667,179.167 52.5,179.5C 52.2089,178.351 51.3756,177.684 50,177.5C 48.9302,177.528 48.0968,177.861 47.5,178.5C 46.1667,178.5 44.8333,178.5 43.5,178.5C 43.5,177.5 43.5,176.5 43.5,175.5 Z"/></g>
<g><path style="opacity:0.08" fill="#fdf5f9" d="M 47.5,178.5 C 48.0968,177.861 48.9302,177.528 50,177.5C 51.3756,177.684 52.2089,178.351 52.5,179.5C 50.8828,178.962 49.2161,178.629 47.5,178.5 Z"/></g>
<g><path style="opacity:0.165" fill="#edacbf" d="M 63.5,177.5 C 63.5,178.167 63.8333,178.5 64.5,178.5C 66.1667,180.5 67.8333,182.5 69.5,184.5C 66.9066,183.246 64.5732,181.58 62.5,179.5C 60.9582,178.699 59.2915,178.366 57.5,178.5C 57.5,177.5 57.5,176.5 57.5,175.5C 59.8583,175.253 61.8583,175.919 63.5,177.5 Z"/></g>
<g><path style="opacity:0.997" fill="#c30a33" d="M 157.5,161.5 C 157.075,164.119 156.075,166.453 154.5,168.5C 151.372,171.787 148.039,174.787 144.5,177.5C 141.075,178.091 138.075,179.425 135.5,181.5C 135.167,181.5 134.833,181.5 134.5,181.5C 129.167,181.5 123.833,181.5 118.5,181.5C 118.715,179.821 118.048,178.821 116.5,178.5C 112.582,177.525 112.582,176.525 116.5,175.5C 117.808,176.232 119.142,177.066 120.5,178C 141.773,181.542 153.773,172.709 156.5,151.5C 157.487,154.768 157.82,158.102 157.5,161.5 Z"/></g>
<g><path style="opacity:1" fill="#eeb2c3" d="M 106.5,182.5 C 106.167,182.5 105.833,182.5 105.5,182.5C 105.631,181.624 105.298,180.957 104.5,180.5C 103.583,181.127 102.583,181.461 101.5,181.5C 102.635,179.787 104.302,179.12 106.5,179.5C 106.5,180.5 106.5,181.5 106.5,182.5 Z"/></g>
<g><path style="opacity:1" fill="#fbedf2" d="M 105.5,182.5 C 104.833,183.167 104.167,183.833 103.5,184.5C 100.752,184.598 100.086,183.598 101.5,181.5C 102.583,181.461 103.583,181.127 104.5,180.5C 105.298,180.957 105.631,181.624 105.5,182.5 Z"/></g>
<g><path style="opacity:0.604" fill="#d64d72" d="M 144.5,177.5 C 144.5,178.5 144.5,179.5 144.5,180.5C 144.158,181.338 143.492,181.672 142.5,181.5C 142.631,180.624 142.298,179.957 141.5,179.5C 139.827,181.086 137.827,181.753 135.5,181.5C 138.075,179.425 141.075,178.091 144.5,177.5 Z"/></g>
<g><path style="opacity:1" fill="#be0724" d="M 69.5,184.5 C 67.8333,182.5 66.1667,180.5 64.5,178.5C 64.3505,177.448 64.5172,176.448 65,175.5C 67.3124,178.979 70.1458,181.979 73.5,184.5C 72.3002,185.292 70.9669,185.292 69.5,184.5 Z"/></g>
<g><path style="opacity:0.155" fill="#da5c7e" d="M 113.5,179.5 C 114.209,178.596 115.209,178.263 116.5,178.5C 118.048,178.821 118.715,179.821 118.5,181.5C 123.833,181.5 129.167,181.5 134.5,181.5C 134.5,181.833 134.5,182.167 134.5,182.5C 133.833,182.5 133.167,182.5 132.5,182.5C 129.5,182.5 126.5,182.5 123.5,182.5C 122.209,182.263 121.209,182.596 120.5,183.5C 119.209,183.737 118.209,183.404 117.5,182.5C 117.5,181.5 117.5,180.5 117.5,179.5C 116.167,179.5 114.833,179.5 113.5,179.5 Z"/></g>
<g><path style="opacity:0.255" fill="#e487a3" d="M 142.5,181.5 C 141.365,183.213 139.698,183.88 137.5,183.5C 136.791,182.596 135.791,182.263 134.5,182.5C 134.5,182.167 134.5,181.833 134.5,181.5C 134.833,181.5 135.167,181.5 135.5,181.5C 137.827,181.753 139.827,181.086 141.5,179.5C 142.298,179.957 142.631,180.624 142.5,181.5 Z"/></g>
<g><path style="opacity:0.133" fill="#f6d0df" d="M 123.5,182.5 C 123.5,183.5 123.5,184.5 123.5,185.5C 121.973,185.573 120.973,184.906 120.5,183.5C 121.209,182.596 122.209,182.263 123.5,182.5 Z"/></g>
<g><path style="opacity:0.147" fill="#e484a0" d="M 123.5,182.5 C 126.5,182.5 129.5,182.5 132.5,182.5C 131.89,183.391 131.557,184.391 131.5,185.5C 128.833,185.5 126.167,185.5 123.5,185.5C 123.5,184.5 123.5,183.5 123.5,182.5 Z"/></g>
<g><path style="opacity:0.108" fill="#f0b5c8" d="M 132.5,182.5 C 133.167,182.5 133.833,182.5 134.5,182.5C 135.791,182.263 136.791,182.596 137.5,183.5C 135.898,185.074 133.898,185.741 131.5,185.5C 131.557,184.391 131.89,183.391 132.5,182.5 Z"/></g>
<g><path style="opacity:0.055" fill="#f5cfdc" d="M 62.5,179.5 C 64.5732,181.58 66.9066,183.246 69.5,184.5C 69.9731,185.906 70.9731,186.573 72.5,186.5C 72.5,187.5 72.5,188.5 72.5,189.5C 68.1667,187.167 64.8333,183.833 62.5,179.5 Z"/></g>
<g><path style="opacity:1" fill="#e07b95" d="M 101.5,181.5 C 100.086,183.598 100.752,184.598 103.5,184.5C 102.791,185.404 101.791,185.737 100.5,185.5C 99.8761,185.083 99.5427,184.416 99.5,183.5C 99.7472,182.287 100.414,181.62 101.5,181.5 Z"/></g>
<g><path style="opacity:1" fill="#be1823" d="M 111.5,181.5 C 110.139,183.527 108.473,185.194 106.5,186.5C 105.508,186.328 104.842,186.662 104.5,187.5C 102.901,187.768 101.568,187.434 100.5,186.5C 100.5,186.167 100.5,185.833 100.5,185.5C 101.791,185.737 102.791,185.404 103.5,184.5C 104.167,183.833 104.833,183.167 105.5,182.5C 105.833,182.5 106.167,182.5 106.5,182.5C 107.234,181.071 108.401,180.071 110,179.5C 111.03,179.836 111.53,180.503 111.5,181.5 Z"/></g>
<g><path style="opacity:0.02" fill="#f4cbda" d="M 113.5,179.5 C 114.833,179.5 116.167,179.5 117.5,179.5C 117.5,180.5 117.5,181.5 117.5,182.5C 116.504,182.586 115.671,182.252 115,181.5C 112.953,185.048 110.12,187.715 106.5,189.5C 106.5,188.5 106.5,187.5 106.5,186.5C 108.473,185.194 110.139,183.527 111.5,181.5C 112.5,181.167 113.167,180.5 113.5,179.5 Z"/></g>
<g><path style="opacity:0.181" fill="#b6eedf" d="M 249.5,187.5 C 249.5,188.5 249.5,189.5 249.5,190.5C 243.167,190.5 236.833,190.5 230.5,190.5C 229.209,190.737 228.209,190.404 227.5,189.5C 234.772,187.004 242.105,186.338 249.5,187.5 Z"/></g>
<g><path style="opacity:0.944" fill="#c41137" d="M 100.5,186.5 C 101.568,187.434 102.901,187.768 104.5,187.5C 101.848,189.289 98.8483,190.289 95.5,190.5C 90.8333,190.5 86.1667,190.5 81.5,190.5C 80.5707,189.685 79.5707,188.852 78.5,188C 85.8809,187.765 93.2142,187.265 100.5,186.5 Z"/></g>
<g><path style="opacity:0.22" fill="#e484a1" d="M 106.5,186.5 C 106.5,187.5 106.5,188.5 106.5,189.5C 104.245,191.38 101.578,192.38 98.5,192.5C 97.791,191.596 96.791,191.263 95.5,191.5C 95.5,191.167 95.5,190.833 95.5,190.5C 98.8483,190.289 101.848,189.289 104.5,187.5C 104.842,186.662 105.508,186.328 106.5,186.5 Z"/></g>
<g><path style="opacity:0.157" fill="#c9f2e8" d="M 222.5,189.5 C 222.586,190.496 222.252,191.329 221.5,192C 219.288,192.789 217.288,192.622 215.5,191.5C 217.558,190.067 219.892,189.4 222.5,189.5 Z"/></g>
<g><path style="opacity:0.639" fill="#5edfb6" d="M 222.5,189.5 C 224.167,189.5 225.833,189.5 227.5,189.5C 228.209,190.404 229.209,190.737 230.5,190.5C 224.78,192.628 218.78,193.961 212.5,194.5C 212.5,193.5 212.5,192.5 212.5,191.5C 213.5,191.5 214.5,191.5 215.5,191.5C 217.288,192.622 219.288,192.789 221.5,192C 222.252,191.329 222.586,190.496 222.5,189.5 Z"/></g>
<g><path style="opacity:0.008" fill="#fae6ed" d="M 82.5,194.5 C 81.2905,194.068 80.2905,193.401 79.5,192.5C 80.209,191.596 81.209,191.263 82.5,191.5C 82.5,192.5 82.5,193.5 82.5,194.5 Z"/></g>
<g><path style="opacity:0.3" fill="#dc6688" d="M 72.5,186.5 C 75.272,188.281 78.272,189.614 81.5,190.5C 86.1667,190.5 90.8333,190.5 95.5,190.5C 95.5,190.833 95.5,191.167 95.5,191.5C 94.5,191.5 93.5,191.5 92.5,191.5C 92.5,192.5 92.5,193.5 92.5,194.5C 89.1667,194.5 85.8333,194.5 82.5,194.5C 82.5,193.5 82.5,192.5 82.5,191.5C 81.209,191.263 80.209,191.596 79.5,192.5C 76.5185,192.818 74.1852,191.818 72.5,189.5C 72.5,188.5 72.5,187.5 72.5,186.5 Z"/></g>
<g><path style="opacity:0.22" fill="#e791ab" d="M 95.5,191.5 C 95.5,192.5 95.5,193.5 95.5,194.5C 94.5,194.5 93.5,194.5 92.5,194.5C 92.5,193.5 92.5,192.5 92.5,191.5C 93.5,191.5 94.5,191.5 95.5,191.5 Z"/></g>
<g><path style="opacity:0.129" fill="#f9e3eb" d="M 95.5,191.5 C 96.791,191.263 97.791,191.596 98.5,192.5C 98.0269,193.906 97.0269,194.573 95.5,194.5C 95.5,193.5 95.5,192.5 95.5,191.5 Z"/></g>
<g><path style="opacity:0.137" fill="#daf5ef" d="M 212.5,191.5 C 212.5,192.5 212.5,193.5 212.5,194.5C 212.167,194.5 211.833,194.5 211.5,194.5C 210.209,194.737 209.209,194.404 208.5,193.5C 209.833,192.833 211.167,192.167 212.5,191.5 Z"/></g>
<g><path style="opacity:0.541" fill="#7ee4c5" d="M 208.5,193.5 C 209.209,194.404 210.209,194.737 211.5,194.5C 205.986,196.65 200.653,199.316 195.5,202.5C 194.167,202.5 193.5,201.833 193.5,200.5C 198.119,197.357 203.119,195.024 208.5,193.5 Z"/></g>
<g><path style="opacity:1" fill="#10cb83" d="M 230.5,190.5 C 236.833,190.5 243.167,190.5 249.5,190.5C 249.5,191.5 249.5,192.5 249.5,193.5C 248.222,193.782 247.222,194.449 246.5,195.5C 244.904,197.832 243.738,200.499 243,203.5C 242.667,203.833 242.333,204.167 242,204.5C 241.51,203.207 241.343,201.873 241.5,200.5C 236.632,200.853 231.965,201.853 227.5,203.5C 226,203.547 225,202.881 224.5,201.5C 226.045,200.548 227.712,200.215 229.5,200.5C 229.784,198.585 229.451,196.919 228.5,195.5C 227.399,194.402 226.066,194.235 224.5,195C 216.119,197.512 207.786,200.179 199.5,203C 194.026,206.477 189.193,210.644 185,215.5C 184.594,218.915 182.928,221.582 180,223.5C 178.881,228.396 177.214,233.063 175,237.5C 174.503,235.19 174.337,232.857 174.5,230.5C 176.351,226.961 178.018,223.294 179.5,219.5C 179.557,218.391 179.89,217.391 180.5,216.5C 182.012,214.404 183.678,212.404 185.5,210.5C 185.833,209.5 186.5,208.833 187.5,208.5C 190.163,206.525 192.83,204.525 195.5,202.5C 200.653,199.316 205.986,196.65 211.5,194.5C 211.833,194.5 212.167,194.5 212.5,194.5C 218.78,193.961 224.78,192.628 230.5,190.5 Z"/></g>
<g><path style="opacity:1" fill="#49d8a3" d="M 239.5,193.5 C 241.256,194.552 241.923,196.219 241.5,198.5C 237.649,199.029 234.149,198.362 231,196.5C 230.316,195.216 230.483,194.049 231.5,193C 234.367,192.199 237.034,192.366 239.5,193.5 Z"/></g>
<g><path style="opacity:1" fill="#d9f7ed" d="M 239.5,193.5 C 239.5,194.833 239.5,196.167 239.5,197.5C 237.167,197.5 234.833,197.5 232.5,197.5C 232.5,196.167 232.5,194.833 232.5,193.5C 234.833,193.5 237.167,193.5 239.5,193.5 Z"/></g>
<g><path style="opacity:0.02" fill="#c4f2e4" d="M 249.5,193.5 C 249.5,196.5 249.5,199.5 249.5,202.5C 247.386,203.784 246.386,205.784 246.5,208.5C 245.549,207.081 245.216,205.415 245.5,203.5C 245.575,200.794 245.908,198.127 246.5,195.5C 247.222,194.449 248.222,193.782 249.5,193.5 Z"/></g>
<g><path style="opacity:0.78" fill="#47d8a6" d="M 193.5,200.5 C 193.5,201.833 194.167,202.5 195.5,202.5C 192.83,204.525 190.163,206.525 187.5,208.5C 188.925,207.078 189.925,205.411 190.5,203.5C 191.5,202.5 192.5,201.5 193.5,200.5 Z"/></g>
<g><path style="opacity:0.259" fill="#e5f9f5" d="M 190.5,203.5 C 189.925,205.411 188.925,207.078 187.5,208.5C 186.5,208.833 185.833,209.5 185.5,210.5C 184.833,210.5 184.167,210.5 183.5,210.5C 185.167,207.5 187.5,205.167 190.5,203.5 Z"/></g>
<g><path style="opacity:0.035" fill="#85e6c6" d="M 245.5,203.5 C 245.216,205.415 245.549,207.081 246.5,208.5C 246.5,209.833 246.5,211.167 246.5,212.5C 244.57,212.771 243.236,213.771 242.5,215.5C 242.781,211.812 243.281,208.145 244,204.5C 244.383,203.944 244.883,203.611 245.5,203.5 Z"/></g>
<g><path style="opacity:0.078" fill="#87e6c8" d="M 183.5,210.5 C 184.167,210.5 184.833,210.5 185.5,210.5C 183.678,212.404 182.012,214.404 180.5,216.5C 180.5,215.5 180.5,214.5 180.5,213.5C 181.167,212.167 182.167,211.167 183.5,210.5 Z"/></g>
<g><path style="opacity:0.056" fill="#def7f0" d="M 180.5,213.5 C 180.5,214.5 180.5,215.5 180.5,216.5C 179.89,217.391 179.557,218.391 179.5,219.5C 178.542,219.953 177.708,220.619 177,221.5C 175.57,224.353 174.737,227.353 174.5,230.5C 172.757,233.495 171.757,236.829 171.5,240.5C 170.833,240.5 170.167,240.5 169.5,240.5C 170.709,230.427 174.375,221.427 180.5,213.5 Z"/></g>
<g><path style="opacity:0.612" fill="#67deb3" d="M 179.5,219.5 C 178.018,223.294 176.351,226.961 174.5,230.5C 174.737,227.353 175.57,224.353 177,221.5C 177.708,220.619 178.542,219.953 179.5,219.5 Z"/></g>
<g><path style="opacity:0.098" fill="#d0f4e9" d="M 246.5,212.5 C 245.137,215.662 244.303,218.996 244,222.5C 243.392,224.066 242.558,225.4 241.5,226.5C 241.942,222.846 242.276,219.179 242.5,215.5C 243.236,213.771 244.57,212.771 246.5,212.5 Z"/></g>
<g><path style="opacity:0.082" fill="#93e8cd" d="M 242.5,215.5 C 242.276,219.179 241.942,222.846 241.5,226.5C 241.5,227.167 241.5,227.833 241.5,228.5C 240.391,228.557 239.391,228.89 238.5,229.5C 240.048,224.849 241.381,220.183 242.5,215.5 Z"/></g>
<g><path style="opacity:1" fill="#3ae0ab" d="M 198.5,250.5 C 194.796,250.276 191.129,250.11 187.5,250C 183.886,252.215 180.553,254.715 177.5,257.5C 176.414,257.38 175.747,256.713 175.5,255.5C 178.14,252.194 181.14,249.194 184.5,246.5C 185.331,240.193 185.831,233.859 186,227.5C 187,226.167 188,226.167 189,227.5C 189.499,231.486 189.666,235.486 189.5,239.5C 190.552,239.649 191.552,239.483 192.5,239C 194.373,236.791 196.54,234.958 199,233.5C 198.624,224.879 198.458,216.212 198.5,207.5C 199.822,207.33 200.989,207.663 202,208.5C 202.5,215.158 202.666,221.825 202.5,228.5C 206.957,226.572 210.79,223.572 214,219.5C 214.499,214.177 214.666,208.844 214.5,203.5C 215.833,203.5 217.167,203.5 218.5,203.5C 218.058,207.154 217.724,210.821 217.5,214.5C 218.552,214.649 219.552,214.483 220.5,214C 221.257,212.488 222.257,211.154 223.5,210C 226.215,209.122 228.549,207.622 230.5,205.5C 231.521,206.002 231.688,206.668 231,207.5C 227.651,210.682 224.484,214.015 221.5,217.5C 221.709,218.086 222.043,218.586 222.5,219C 225.5,219.333 228.5,219.667 231.5,220C 232.451,220.718 232.617,221.551 232,222.5C 226.888,223.376 221.722,223.543 216.5,223C 214.131,226.226 211.131,228.392 207.5,229.5C 207.5,230.5 207.5,231.5 207.5,232.5C 212.57,232.685 217.57,233.352 222.5,234.5C 222.5,235.5 222.5,236.5 222.5,237.5C 215.152,236.314 207.819,235.981 200.5,236.5C 196.596,239.046 193.93,242.38 192.5,246.5C 196.519,246.646 200.519,246.979 204.5,247.5C 204.5,248.5 204.5,249.5 204.5,250.5C 202.5,250.5 200.5,250.5 198.5,250.5 Z"/></g>
<g><path style="opacity:0.02" fill="#e7f9f4" d="M 241.5,228.5 C 239.957,233.024 237.623,237.024 234.5,240.5C 234.629,238.784 234.962,237.117 235.5,235.5C 235.733,233.938 236.4,232.605 237.5,231.5C 238.338,231.158 238.672,230.492 238.5,229.5C 239.391,228.89 240.391,228.557 241.5,228.5 Z"/></g>
<g><path style="opacity:1" fill="#0bd091" d="M 228.5,195.5 C 229.451,196.919 229.784,198.585 229.5,200.5C 227.712,200.215 226.045,200.548 224.5,201.5C 225,202.881 226,203.547 227.5,203.5C 231.965,201.853 236.632,200.853 241.5,200.5C 241.343,201.873 241.51,203.207 242,204.5C 242.333,204.167 242.667,203.833 243,203.5C 243.738,200.499 244.904,197.832 246.5,195.5C 245.908,198.127 245.575,200.794 245.5,203.5C 244.883,203.611 244.383,203.944 244,204.5C 243.281,208.145 242.781,211.812 242.5,215.5C 241.381,220.183 240.048,224.849 238.5,229.5C 238.672,230.492 238.338,231.158 237.5,231.5C 237.579,228.729 237.079,226.063 236,223.5C 232.137,237.361 223.637,247.195 210.5,253C 206.914,254.108 203.247,254.608 199.5,254.5C 199.567,253.041 199.234,251.708 198.5,250.5C 200.5,250.5 202.5,250.5 204.5,250.5C 204.5,249.5 204.5,248.5 204.5,247.5C 200.519,246.979 196.519,246.646 192.5,246.5C 193.93,242.38 196.596,239.046 200.5,236.5C 207.819,235.981 215.152,236.314 222.5,237.5C 222.5,236.5 222.5,235.5 222.5,234.5C 217.57,233.352 212.57,232.685 207.5,232.5C 207.5,231.5 207.5,230.5 207.5,229.5C 211.131,228.392 214.131,226.226 216.5,223C 221.722,223.543 226.888,223.376 232,222.5C 232.617,221.551 232.451,220.718 231.5,220C 228.5,219.667 225.5,219.333 222.5,219C 222.043,218.586 221.709,218.086 221.5,217.5C 224.484,214.015 227.651,210.682 231,207.5C 231.688,206.668 231.521,206.002 230.5,205.5C 228.549,207.622 226.215,209.122 223.5,210C 222.257,211.154 221.257,212.488 220.5,214C 219.552,214.483 218.552,214.649 217.5,214.5C 217.724,210.821 218.058,207.154 218.5,203.5C 217.167,203.5 215.833,203.5 214.5,203.5C 214.666,208.844 214.499,214.177 214,219.5C 210.79,223.572 206.957,226.572 202.5,228.5C 202.666,221.825 202.5,215.158 202,208.5C 200.989,207.663 199.822,207.33 198.5,207.5C 198.458,216.212 198.624,224.879 199,233.5C 196.54,234.958 194.373,236.791 192.5,239C 191.552,239.483 190.552,239.649 189.5,239.5C 189.666,235.486 189.499,231.486 189,227.5C 188,226.167 187,226.167 186,227.5C 185.831,233.859 185.331,240.193 184.5,246.5C 181.14,249.194 178.14,252.194 175.5,255.5C 175.747,256.713 176.414,257.38 177.5,257.5C 176.791,258.404 175.791,258.737 174.5,258.5C 174.666,252.158 174.5,245.825 174,239.5C 172.54,246.323 172.04,253.323 172.5,260.5C 180.167,260.5 187.833,260.5 195.5,260.5C 195.5,260.833 195.5,261.167 195.5,261.5C 187.833,261.5 180.167,261.5 172.5,261.5C 171.833,261.5 171.5,261.167 171.5,260.5C 171.5,253.833 171.5,247.167 171.5,240.5C 171.757,236.829 172.757,233.495 174.5,230.5C 174.337,232.857 174.503,235.19 175,237.5C 177.214,233.063 178.881,228.396 180,223.5C 182.928,221.582 184.594,218.915 185,215.5C 189.193,210.644 194.026,206.477 199.5,203C 207.786,200.179 216.119,197.512 224.5,195C 226.066,194.235 227.399,194.402 228.5,195.5 Z"/></g>
<g><path style="opacity:1" fill="#daf8ef" d="M 228.5,195.5 C 228.5,196.5 228.5,197.5 228.5,198.5C 227.5,198.5 226.5,198.5 225.5,198.5C 225.5,197.5 225.5,196.5 225.5,195.5C 226.5,195.5 227.5,195.5 228.5,195.5 Z"/></g>
<g><path style="opacity:0.3" fill="#75e2bf" d="M 235.5,235.5 C 234.962,237.117 234.629,238.784 234.5,240.5C 234.167,241.5 233.5,242.167 232.5,242.5C 231.391,242.557 230.391,242.89 229.5,243.5C 231.981,241.209 233.981,238.543 235.5,235.5 Z"/></g>
<g><path style="opacity:0.247" fill="#dbf7ef" d="M 232.5,242.5 C 230.167,245.5 227.5,248.167 224.5,250.5C 224.5,249.833 224.5,249.167 224.5,248.5C 225.833,246.5 227.5,244.833 229.5,243.5C 230.391,242.89 231.391,242.557 232.5,242.5 Z"/></g>
<g><path style="opacity:0.105" fill="#71e2c1" d="M 169.5,240.5 C 170.167,240.5 170.833,240.5 171.5,240.5C 171.5,247.167 171.5,253.833 171.5,260.5C 170.5,260.5 169.5,260.5 168.5,260.5C 168.176,253.646 168.509,246.979 169.5,240.5 Z"/></g>
<g><path style="opacity:0.156" fill="#5ddeb7" d="M 224.5,248.5 C 224.5,249.167 224.5,249.833 224.5,250.5C 223.738,252.262 222.404,253.262 220.5,253.5C 220.158,252.662 219.492,252.328 218.5,252.5C 219.802,250.178 221.802,248.845 224.5,248.5 Z"/></g>
<g><path style="opacity:1" fill="#15cc85" d="M 237.5,231.5 C 236.4,232.605 235.733,233.938 235.5,235.5C 233.981,238.543 231.981,241.209 229.5,243.5C 227.5,244.833 225.833,246.5 224.5,248.5C 221.802,248.845 219.802,250.178 218.5,252.5C 218.167,252.5 217.833,252.5 217.5,252.5C 212.74,255.416 207.74,257.75 202.5,259.5C 200.194,259.993 197.861,260.326 195.5,260.5C 187.833,260.5 180.167,260.5 172.5,260.5C 172.04,253.323 172.54,246.323 174,239.5C 174.5,245.825 174.666,252.158 174.5,258.5C 175.791,258.737 176.791,258.404 177.5,257.5C 180.553,254.715 183.886,252.215 187.5,250C 191.129,250.11 194.796,250.276 198.5,250.5C 199.234,251.708 199.567,253.041 199.5,254.5C 203.247,254.608 206.914,254.108 210.5,253C 223.637,247.195 232.137,237.361 236,223.5C 237.079,226.063 237.579,228.729 237.5,231.5 Z"/></g>
<g><path style="opacity:0.278" fill="#c0f1e7" d="M 217.5,252.5 C 217.833,252.5 218.167,252.5 218.5,252.5C 219.492,252.328 220.158,252.662 220.5,253.5C 220.027,254.906 219.027,255.573 217.5,255.5C 217.5,254.5 217.5,253.5 217.5,252.5 Z"/></g>
<g><path style="opacity:0.996" fill="#77e4c0" d="M 196.5,258.5 C 196.5,257.5 196.5,256.5 196.5,255.5C 193.833,255.5 191.167,255.5 188.5,255.5C 188.5,256.5 188.5,257.5 188.5,258.5C 187.566,257.432 187.232,256.099 187.5,254.5C 190.833,254.5 194.167,254.5 197.5,254.5C 197.768,256.099 197.434,257.432 196.5,258.5 Z"/></g>
<g><path style="opacity:0.999" fill="#eafbf5" d="M 196.5,258.5 C 193.833,258.5 191.167,258.5 188.5,258.5C 188.5,257.5 188.5,256.5 188.5,255.5C 191.167,255.5 193.833,255.5 196.5,255.5C 196.5,256.5 196.5,257.5 196.5,258.5 Z"/></g>
<g><path style="opacity:0.024" fill="#ebfaf8" d="M 213.5,258.5 C 211.938,258.733 210.605,259.4 209.5,260.5C 209.5,259.5 209.5,258.5 209.5,257.5C 210.822,257.67 211.989,257.337 213,256.5C 213.464,257.094 213.631,257.761 213.5,258.5 Z"/></g>
<g><path style="opacity:0.106" fill="#7ee4c5" d="M 217.5,252.5 C 217.5,253.5 217.5,254.5 217.5,255.5C 216.205,256.488 214.872,257.488 213.5,258.5C 213.631,257.761 213.464,257.094 213,256.5C 211.989,257.337 210.822,257.67 209.5,257.5C 209.5,258.5 209.5,259.5 209.5,260.5C 208.167,260.5 206.833,260.5 205.5,260.5C 204.791,259.596 203.791,259.263 202.5,259.5C 207.74,257.75 212.74,255.416 217.5,252.5 Z"/></g>
<g><path style="opacity:0.337" fill="#6ee3c0" d="M 202.5,259.5 C 202.5,260.833 202.5,262.167 202.5,263.5C 201.5,263.5 200.5,263.5 199.5,263.5C 198.817,261.824 197.483,261.157 195.5,261.5C 195.5,261.167 195.5,260.833 195.5,260.5C 197.861,260.326 200.194,259.993 202.5,259.5 Z"/></g>
<g><path style="opacity:0.059" fill="#e1f5f2" d="M 202.5,259.5 C 203.791,259.263 204.791,259.596 205.5,260.5C 204.833,261.5 204.167,262.5 203.5,263.5C 203.167,263.5 202.833,263.5 202.5,263.5C 202.5,262.167 202.5,260.833 202.5,259.5 Z"/></g>
<g><path style="opacity:0.059" fill="#f1faf9" d="M 168.5,260.5 C 169.5,260.5 170.5,260.5 171.5,260.5C 171.5,261.167 171.833,261.5 172.5,261.5C 172.833,262.167 173.167,262.833 173.5,263.5C 172.167,263.5 170.833,263.5 169.5,263.5C 168.89,262.609 168.557,261.609 168.5,260.5 Z"/></g>
<g><path style="opacity:0.492" fill="#97e8d1" d="M 172.5,261.5 C 180.167,261.5 187.833,261.5 195.5,261.5C 194.833,262.167 194.167,262.833 193.5,263.5C 186.833,263.5 180.167,263.5 173.5,263.5C 173.167,262.833 172.833,262.167 172.5,261.5 Z"/></g>
<g><path style="opacity:0.104" fill="#e4f7f2" d="M 195.5,261.5 C 197.483,261.157 198.817,261.824 199.5,263.5C 197.5,263.5 195.5,263.5 193.5,263.5C 194.167,262.833 194.833,262.167 195.5,261.5 Z"/></g>
</svg>
