<?xml version="1.0" encoding="UTF-8"?>
<!DOCTYPE svg PUBLIC "-//W3C//DTD SVG 1.1//EN" "http://www.w3.org/Graphics/SVG/1.1/DTD/svg11.dtd">
<svg xmlns="http://www.w3.org/2000/svg" version="1.1" width="180px" height="186px" style="shape-rendering:geometricPrecision; text-rendering:geometricPrecision; image-rendering:optimizeQuality; fill-rule:evenodd; clip-rule:evenodd" xmlns:xlink="http://www.w3.org/1999/xlink">
<g><path style="opacity:0.173" fill="#ffe8ec" d="M 75.5,-0.5 C 75.8333,-0.5 76.1667,-0.5 76.5,-0.5C 76.3066,2.5701 74.9733,3.5701 72.5,2.5C 73.6935,1.72813 74.6935,0.728127 75.5,-0.5 Z"/></g>
<g><path style="opacity:0.275" fill="#ffd1d7" d="M 78.5,-0.5 C 84.1667,-0.5 89.8333,-0.5 95.5,-0.5C 100.126,2.4578 104.126,6.12447 107.5,10.5C 107.5,11.1667 107.5,11.8333 107.5,12.5C 104.703,10.205 102.036,7.70497 99.5,5C 97.5115,4.06168 95.5115,3.22835 93.5,2.5C 89.2422,0.410306 84.7422,0.0769732 80,1.5C 78.9701,1.16389 78.4701,0.497222 78.5,-0.5 Z"/></g>
<g><path style="opacity:0.957" fill="#ff7783" d="M 93.5,2.5 C 95.5115,3.22835 97.5115,4.06168 99.5,5C 102.036,7.70497 104.703,10.205 107.5,12.5C 109.738,15.4297 111.071,18.7631 111.5,22.5C 111.295,27.3594 110.295,27.3594 108.5,22.5C 107.201,20.5877 106.201,18.5877 105.5,16.5C 104.602,15.8423 103.602,15.1757 102.5,14.5C 103.326,13.549 103.492,12.549 103,11.5C 98.1888,6.66709 92.3555,4.00042 85.5,3.5C 82.1359,3.89285 78.8026,4.05952 75.5,4C 81.4067,2.6392 87.4067,2.1392 93.5,2.5 Z"/></g>
<g><path style="opacity:0.141" fill="#ffeaee" d="M 70.5,3.5 C 68.2799,7.39451 65.2799,10.7278 61.5,13.5C 63.1161,8.9435 66.1161,5.61016 70.5,3.5 Z"/></g>
<g><path style="opacity:0.066" fill="#fff2f5" d="M 61.5,13.5 C 60.3528,16.41 59.3528,19.41 58.5,22.5C 57.8333,22.5 57.1667,22.5 56.5,22.5C 57.0147,18.7011 58.6814,15.7011 61.5,13.5 Z"/></g>
<g><path style="opacity:1" fill="#ffebed" d="M 105.5,16.5 C 106.201,18.5877 107.201,20.5877 108.5,22.5C 108.5,23.8333 108.5,25.1667 108.5,26.5C 107.167,26.5 105.833,26.5 104.5,26.5C 103.833,23.1667 103.167,19.8333 102.5,16.5C 103.5,16.5 104.5,16.5 105.5,16.5 Z"/></g>
<g><path style="opacity:0.033" fill="#ffeef2" d="M 107.5,10.5 C 111.937,15.2748 114.77,20.9415 116,27.5C 116.499,33.1569 116.666,38.8236 116.5,44.5C 114.711,39.5932 113.878,34.2599 114,28.5C 113.76,26.1484 112.927,24.1484 111.5,22.5C 111.071,18.7631 109.738,15.4297 107.5,12.5C 107.5,11.8333 107.5,11.1667 107.5,10.5 Z"/></g>
<g><path style="opacity:0.674" fill="#ffb8c1" d="M 56.5,22.5 C 57.1667,22.5 57.8333,22.5 58.5,22.5C 57.5422,28.7436 57.2088,35.077 57.5,41.5C 56.8333,36.1667 56.1667,30.8333 55.5,25.5C 55.2627,24.209 55.596,23.209 56.5,22.5 Z"/></g>
<g><path style="opacity:0.516" fill="#ffd7dd" d="M 55.5,25.5 C 56.1667,30.8333 56.8333,36.1667 57.5,41.5C 58.9222,50.1009 61.9222,58.1009 66.5,65.5C 66,65.8333 65.5,66.1667 65,66.5C 53.6458,59.0193 41.1458,56.186 27.5,58C 26.944,58.3826 26.6107,58.8826 26.5,59.5C 17.9752,60.4281 11.3085,64.4281 6.5,71.5C 4.52594,73.428 3.02594,75.7613 2,78.5C -2.11308,94.9333 3.38692,106.6 18.5,113.5C 18.5,114.5 18.5,115.5 18.5,116.5C 10.2506,112.891 3.91728,107.224 -0.5,99.5C -0.5,92.1667 -0.5,84.8333 -0.5,77.5C 7.40355,63.0326 19.7369,55.366 36.5,54.5C 43.7623,55.3229 50.7623,56.8229 57.5,59C 58.3567,58.3109 59.0233,57.4776 59.5,56.5C 54.8166,46.5972 53.4832,36.2638 55.5,25.5 Z"/></g>
<g><path style="opacity:1" fill="#ff7885" d="M 31.5,62.5 C 30.71,63.6085 30.21,64.9419 30,66.5C 29.6232,65.0577 28.7899,64.0577 27.5,63.5C 24.5132,62.2979 21.8465,62.9646 19.5,65.5C 18.1411,66.0065 17.1411,67.0065 16.5,68.5C 15.8333,67.8333 15.1667,67.1667 14.5,66.5C 12.1667,68.5 9.83333,70.5 7.5,72.5C 6.89333,72.3764 6.55999,72.0431 6.5,71.5C 11.3085,64.4281 17.9752,60.4281 26.5,59.5C 29.4453,58.5325 32.4453,58.3658 35.5,59C 35.9574,59.414 36.2907,59.914 36.5,60.5C 34.7086,61.1698 33.0419,61.8365 31.5,62.5 Z"/></g>
<g><path style="opacity:1" fill="#ff8c97" d="M 76.5,-0.5 C 77.1667,-0.5 77.8333,-0.5 78.5,-0.5C 78.4701,0.497222 78.9701,1.16389 80,1.5C 84.7422,0.0769732 89.2422,0.410306 93.5,2.5C 87.4067,2.1392 81.4067,2.6392 75.5,4C 78.8026,4.05952 82.1359,3.89285 85.5,3.5C 92.3555,4.00042 98.1888,6.66709 103,11.5C 103.492,12.549 103.326,13.549 102.5,14.5C 103.602,15.1757 104.602,15.8423 105.5,16.5C 104.5,16.5 103.5,16.5 102.5,16.5C 103.167,19.8333 103.833,23.1667 104.5,26.5C 105.833,26.5 107.167,26.5 108.5,26.5C 108.5,25.1667 108.5,23.8333 108.5,22.5C 110.295,27.3594 111.295,27.3594 111.5,22.5C 112.927,24.1484 113.76,26.1484 114,28.5C 113.878,34.2599 114.711,39.5932 116.5,44.5C 116.737,45.791 116.404,46.791 115.5,47.5C 114.5,47.5 113.5,47.5 112.5,47.5C 112.275,54.6834 110.608,61.5167 107.5,68C 107.833,68.5 108.167,69 108.5,69.5C 114.058,63.7723 120.058,58.6057 126.5,54C 127.337,52.9887 127.67,51.8221 127.5,50.5C 128.167,50.1667 128.833,49.8333 129.5,49.5C 129.735,50.0967 130.235,50.4301 131,50.5C 142.274,43.1143 154.441,41.2809 167.5,45C 177.485,52.1157 180.485,61.2824 176.5,72.5C 176.66,70.8008 176.494,69.1341 176,67.5C 174.85,72.1772 172.683,76.1772 169.5,79.5C 168.796,77.6558 167.463,77.1558 165.5,78C 163.612,80.1896 161.445,82.0229 159,83.5C 158.517,84.448 158.351,85.448 158.5,86.5C 159.5,86.5 160.5,86.5 161.5,86.5C 152.941,92.5942 143.274,96.2608 132.5,97.5C 134.743,98.4742 137.076,98.8076 139.5,98.5C 137.631,99.1646 135.631,99.8313 133.5,100.5C 136.156,101.614 138.823,101.614 141.5,100.5C 141.5,101.167 141.833,101.5 142.5,101.5C 146.361,104.925 151.027,107.091 156.5,108C 162.866,111.434 168.366,115.934 173,121.5C 176.158,128.853 176.324,136.186 173.5,143.5C 173.719,142.325 173.386,141.325 172.5,140.5C 167.825,152.012 159.825,160.512 148.5,166C 149.094,166.464 149.761,166.631 150.5,166.5C 149.766,167.708 149.433,169.041 149.5,170.5C 148.5,170.5 147.5,170.5 146.5,170.5C 145.791,169.596 144.791,169.263 143.5,169.5C 143.5,170.5 143.5,171.5 143.5,172.5C 142.5,172.5 141.5,172.5 140.5,172.5C 137.929,170.769 134.929,169.769 131.5,169.5C 132.563,167.653 134.229,167.319 136.5,168.5C 138.577,168.308 140.577,167.808 142.5,167C 135.719,167.412 129.052,166.412 122.5,164C 123.337,162.989 123.67,161.822 123.5,160.5C 122.209,160.737 121.209,160.404 120.5,159.5C 121.5,159.5 122.5,159.5 123.5,159.5C 123.473,157.801 122.806,156.467 121.5,155.5C 122.376,155.631 123.043,155.298 123.5,154.5C 121.323,150.77 118.323,148.604 114.5,148C 113.213,149.41 112.046,150.91 111,152.5C 107.026,149.024 104.526,144.691 103.5,139.5C 102.702,139.957 102.369,140.624 102.5,141.5C 101.859,139.958 100.859,138.624 99.5,137.5C 98.8324,140.306 98.1657,142.972 97.5,145.5C 97.8174,142.428 97.4841,139.428 96.5,136.5C 95.5571,150.473 90.8904,162.973 82.5,174C 74.1379,180.442 64.9713,182.276 55,179.5C 53.3164,179.683 53.1498,180.35 54.5,181.5C 52.6656,180.506 50.9989,180.506 49.5,181.5C 49.1667,181.5 48.8333,181.5 48.5,181.5C 48.5,180.5 48.5,179.5 48.5,178.5C 49.7382,179.412 51.0715,179.579 52.5,179C 45.6135,175.114 40.4469,169.614 37,162.5C 36.4739,159.089 35.6406,155.755 34.5,152.5C 35.6551,150.105 36.6551,147.771 37.5,145.5C 37.5,147.167 37.5,148.833 37.5,150.5C 38.8221,150.67 39.9887,150.337 41,149.5C 42.0429,146.243 42.5429,142.91 42.5,139.5C 41.5,139.5 40.5,139.5 39.5,139.5C 40.2625,138.732 41.2625,138.232 42.5,138C 41.2068,137.51 39.8734,137.343 38.5,137.5C 38.8406,134.484 40.0073,131.818 42,129.5C 45.8333,125.667 49.6667,121.833 53.5,118C 52.9056,117.536 52.2389,117.369 51.5,117.5C 52.6602,116.735 53.6602,115.735 54.5,114.5C 52.2287,113.637 49.8954,113.637 47.5,114.5C 37.7618,115.965 28.0951,115.632 18.5,113.5C 3.38692,106.6 -2.11308,94.9333 2,78.5C 3.02594,75.7613 4.52594,73.428 6.5,71.5C 6.55999,72.0431 6.89333,72.3764 7.5,72.5C 9.83333,70.5 12.1667,68.5 14.5,66.5C 15.1667,67.1667 15.8333,67.8333 16.5,68.5C 17.1411,67.0065 18.1411,66.0065 19.5,65.5C 19.5,66.5 19.5,67.5 19.5,68.5C 22.1667,67.8333 24.8333,67.1667 27.5,66.5C 27.5,65.5 27.5,64.5 27.5,63.5C 28.7899,64.0577 29.6232,65.0577 30,66.5C 30.21,64.9419 30.71,63.6085 31.5,62.5C 33.0419,61.8365 34.7086,61.1698 36.5,60.5C 36.2907,59.914 35.9574,59.414 35.5,59C 32.4453,58.3658 29.4453,58.5325 26.5,59.5C 26.6107,58.8826 26.944,58.3826 27.5,58C 41.1458,56.186 53.6458,59.0193 65,66.5C 65.5,66.1667 66,65.8333 66.5,65.5C 61.9222,58.1009 58.9222,50.1009 57.5,41.5C 57.2088,35.077 57.5422,28.7436 58.5,22.5C 59.3528,19.41 60.3528,16.41 61.5,13.5C 65.2799,10.7278 68.2799,7.39451 70.5,3.5C 71.1667,3.16667 71.8333,2.83333 72.5,2.5C 74.9733,3.5701 76.3066,2.5701 76.5,-0.5 Z"/></g>
<g><path style="opacity:1" fill="#ff2a6b" d="M 97.5,53.5 C 97.5,53.8333 97.5,54.1667 97.5,54.5C 99.2192,62.3806 99.8859,70.3806 99.5,78.5C 99.3433,79.8734 99.51,81.2068 100,82.5C 104.724,77.0527 110.557,74.2194 117.5,74C 118.044,74.7172 118.711,75.2172 119.5,75.5C 123.72,81.4157 122.72,86.5824 116.5,91C 113.691,92.7411 110.691,93.9078 107.5,94.5C 107.016,88.2052 103.683,86.0385 97.5,88C 96.1772,88.8159 95.5106,89.9826 95.5,91.5C 94.8333,91.5 94.1667,91.5 93.5,91.5C 93.1667,90.5 92.5,89.8333 91.5,89.5C 91.1583,88.6618 90.4916,88.3284 89.5,88.5C 88.7515,86.6675 87.7515,85.0009 86.5,83.5C 86.3031,79.3776 85.4698,75.3776 84,71.5C 83.3333,66.1667 83.3333,60.8333 84,55.5C 85.6792,52.4875 88.0125,50.1541 91,48.5C 93.317,49.9852 95.4836,51.6519 97.5,53.5 Z"/></g>
<g><path style="opacity:0.4" fill="#ffe0e4" d="M 115.5,47.5 C 115.156,51.2283 114.49,54.8949 113.5,58.5C 114,58.8333 114.5,59.1667 115,59.5C 119.314,56.6834 123.48,53.6834 127.5,50.5C 127.67,51.8221 127.337,52.9887 126.5,54C 120.058,58.6057 114.058,63.7723 108.5,69.5C 108.167,69 107.833,68.5 107.5,68C 110.608,61.5167 112.275,54.6834 112.5,47.5C 113.5,47.5 114.5,47.5 115.5,47.5 Z"/></g>
<g><path style="opacity:1" fill="#ffd7e4" d="M 89.5,51.5 C 90.5,51.5 91.5,51.5 92.5,51.5C 92.3337,54.1684 91.3337,56.5017 89.5,58.5C 88.675,59.3857 87.675,59.719 86.5,59.5C 86.5393,56.4649 87.5393,53.7982 89.5,51.5 Z"/></g>
<g><path style="opacity:1" fill="#ffebec" d="M 27.5,63.5 C 27.5,64.5 27.5,65.5 27.5,66.5C 24.8333,67.1667 22.1667,67.8333 19.5,68.5C 19.5,67.5 19.5,66.5 19.5,65.5C 21.8465,62.9646 24.5132,62.2979 27.5,63.5 Z"/></g>
<g><path style="opacity:1" fill="#fff2f2" d="M 31.5,62.5 C 32.8333,62.5 34.1667,62.5 35.5,62.5C 35.5,63.5 35.5,64.5 35.5,65.5C 34.1667,65.5 32.8333,65.5 31.5,65.5C 31.5,64.5 31.5,63.5 31.5,62.5 Z"/></g>
<g><path style="opacity:1" fill="#ff7a8f" d="M 97.5,54.5 C 98.6005,56.2774 99.4338,58.2774 100,60.5C 100.819,66.6812 100.653,72.6812 99.5,78.5C 99.8859,70.3806 99.2192,62.3806 97.5,54.5 Z"/></g>
<g><path style="opacity:1" fill="#ffa2a1" d="M 119.5,75.5 C 118.711,75.2172 118.044,74.7172 117.5,74C 110.557,74.2194 104.724,77.0527 100,82.5C 99.51,81.2068 99.3433,79.8734 99.5,78.5C 100.653,72.6812 100.819,66.6812 100,60.5C 99.4338,58.2774 98.6005,56.2774 97.5,54.5C 97.5,54.1667 97.5,53.8333 97.5,53.5C 97.3932,51.6214 97.8932,51.2881 99,52.5C 102.192,59.7517 103.358,67.4183 102.5,75.5C 106.25,73.6357 110.25,72.3023 114.5,71.5C 117.191,71.6794 119.525,72.6794 121.5,74.5C 121.043,75.2975 120.376,75.6309 119.5,75.5 Z"/></g>
<g><path style="opacity:0.068" fill="#ffdde2" d="M 179.5,55.5 C 179.5,62.1667 179.5,68.8333 179.5,75.5C 170.583,89.3976 157.916,97.7309 141.5,100.5C 138.823,101.614 136.156,101.614 133.5,100.5C 135.631,99.8313 137.631,99.1646 139.5,98.5C 152.067,96.1446 162.9,90.4779 172,81.5C 174.038,78.7568 175.538,75.7568 176.5,72.5C 180.485,61.2824 177.485,52.1157 167.5,45C 154.441,41.2809 142.274,43.1143 131,50.5C 130.235,50.4301 129.735,50.0967 129.5,49.5C 138.629,42.6205 148.962,39.7872 160.5,41C 168.998,42.9982 175.331,47.8315 179.5,55.5 Z"/></g>
<g><path style="opacity:1" fill="#ffd5e1" d="M 113.5,77.5 C 117.349,77.0193 119.349,78.686 119.5,82.5C 116.288,82.2876 114.288,80.6209 113.5,77.5 Z"/></g>
<g><path style="opacity:1" fill="#ffebed" d="M 169.5,79.5 C 166.833,81.8333 164.167,84.1667 161.5,86.5C 160.5,86.5 159.5,86.5 158.5,86.5C 158.351,85.448 158.517,84.448 159,83.5C 161.445,82.0229 163.612,80.1896 165.5,78C 167.463,77.1558 168.796,77.6558 169.5,79.5 Z"/></g>
<g><path style="opacity:1" fill="#ff2a6c" d="M 87.5,88.5 C 86.2801,90.2837 86.2801,91.9504 87.5,93.5C 87.62,94.5862 88.2867,95.2528 89.5,95.5C 90.4164,95.4573 91.0831,95.1239 91.5,94.5C 91.8333,94.5 92.1667,94.5 92.5,94.5C 93.609,94.5569 94.609,94.8902 95.5,95.5C 95.5,95.8333 95.5,96.1667 95.5,96.5C 95.6716,97.4916 95.3382,98.1583 94.5,98.5C 89.7119,99.123 87.8786,101.79 89,106.5C 90.1451,107.636 91.3117,108.636 92.5,109.5C 89.6421,115.35 85.3088,119.85 79.5,123C 78.1667,123.667 76.8333,123.667 75.5,123C 74.2949,121.624 72.9616,120.458 71.5,119.5C 70.5283,113.135 72.5283,108.135 77.5,104.5C 78.2739,105.147 79.2739,105.48 80.5,105.5C 82.3545,105.66 83.6879,104.993 84.5,103.5C 86.6933,96.446 84.36,94.1127 77.5,96.5C 75.7202,97.9899 75.0535,99.9899 75.5,102.5C 68.4921,102.666 61.4921,102.5 54.5,102C 43.7653,97.9893 40.5986,90.8226 45,80.5C 54.8977,70.3614 65.3977,69.8614 76.5,79C 79.8249,82.6473 83.4915,85.814 87.5,88.5 Z"/></g>
<g><path style="opacity:1" fill="#ffe0ea" d="M 46.5,87.5 C 47.5,87.5 48.5,87.5 49.5,87.5C 49.585,89.9288 50.585,91.9288 52.5,93.5C 50.3778,96.1397 48.5444,95.8063 47,92.5C 46.5065,90.8659 46.3398,89.1992 46.5,87.5 Z"/></g>
<g><path style="opacity:1" fill="#ffbd35" d="M 87.5,88.5 C 88.1667,88.5 88.8333,88.5 89.5,88.5C 90.4916,88.3284 91.1583,88.6618 91.5,89.5C 89.0274,89.0882 87.6941,90.0882 87.5,92.5C 87.5,92.8333 87.5,93.1667 87.5,93.5C 86.2801,91.9504 86.2801,90.2837 87.5,88.5 Z"/></g>
<g><path style="opacity:1" fill="#ffe331" d="M 107.5,94.5 C 107.5,95.1667 107.5,95.8333 107.5,96.5C 105.833,97.8333 104.167,99.1667 102.5,100.5C 99.3477,100.429 97.0144,99.0954 95.5,96.5C 95.5,96.1667 95.5,95.8333 95.5,95.5C 95.5,94.1667 95.5,92.8333 95.5,91.5C 95.5106,89.9826 96.1772,88.8159 97.5,88C 103.683,86.0385 107.016,88.2052 107.5,94.5 Z"/></g>
<g><path style="opacity:0.996" fill="#ff7884" d="M 176.5,72.5 C 175.538,75.7568 174.038,78.7568 172,81.5C 162.9,90.4779 152.067,96.1446 139.5,98.5C 137.076,98.8076 134.743,98.4742 132.5,97.5C 143.274,96.2608 152.941,92.5942 161.5,86.5C 164.167,84.1667 166.833,81.8333 169.5,79.5C 172.683,76.1772 174.85,72.1772 176,67.5C 176.494,69.1341 176.66,70.8008 176.5,72.5 Z"/></g>
<g><path style="opacity:1" fill="#ffe636" d="M 91.5,89.5 C 92.5,89.8333 93.1667,90.5 93.5,91.5C 93.4431,92.609 93.1098,93.609 92.5,94.5C 92.1667,94.5 91.8333,94.5 91.5,94.5C 91.5,93.5 91.5,92.5 91.5,91.5C 90.0413,91.4326 88.7079,91.7659 87.5,92.5C 87.6941,90.0882 89.0274,89.0882 91.5,89.5 Z"/></g>
<g><path style="opacity:1" fill="#ff6c45" d="M 93.5,91.5 C 94.1667,91.5 94.8333,91.5 95.5,91.5C 95.5,92.8333 95.5,94.1667 95.5,95.5C 94.609,94.8902 93.609,94.5569 92.5,94.5C 93.1098,93.609 93.4431,92.609 93.5,91.5 Z"/></g>
<g><path style="opacity:1" fill="#ffedb3" d="M 91.5,94.5 C 91.0831,95.1239 90.4164,95.4573 89.5,95.5C 88.2867,95.2528 87.62,94.5862 87.5,93.5C 87.5,93.1667 87.5,92.8333 87.5,92.5C 88.7079,91.7659 90.0413,91.4326 91.5,91.5C 91.5,92.5 91.5,93.5 91.5,94.5 Z"/></g>
<g><path style="opacity:1" fill="#fff9d4" d="M 98.5,94.5 C 99.8333,94.5 101.167,94.5 102.5,94.5C 102.833,97.5 101.5,98.8333 98.5,98.5C 98.5,97.1667 98.5,95.8333 98.5,94.5 Z"/></g>
<g><path style="opacity:1" fill="#fff51a" d="M 84.5,103.5 C 82.228,103.089 81.8947,101.922 83.5,100C 83.1639,98.9701 82.4972,98.4701 81.5,98.5C 80.5,98.5 79.5,98.5 78.5,98.5C 77.6618,98.1583 77.3284,97.4916 77.5,96.5C 84.36,94.1127 86.6933,96.446 84.5,103.5 Z"/></g>
<g><path style="opacity:1" fill="#ffe72b" d="M 94.5,98.5 C 95.5,100.167 96.8333,101.5 98.5,102.5C 97.9573,105.038 96.9573,107.372 95.5,109.5C 94.5,109.5 93.5,109.5 92.5,109.5C 91.3117,108.636 90.1451,107.636 89,106.5C 87.8786,101.79 89.7119,99.123 94.5,98.5 Z"/></g>
<g><path style="opacity:1" fill="#ff4d55" d="M 95.5,96.5 C 97.0144,99.0954 99.3477,100.429 102.5,100.5C 101.167,101.167 99.8333,101.833 98.5,102.5C 96.8333,101.5 95.5,100.167 94.5,98.5C 95.3382,98.1583 95.6716,97.4916 95.5,96.5 Z"/></g>
<g><path style="opacity:1" fill="#ff999d" d="M 86.5,83.5 C 87.7515,85.0009 88.7515,86.6675 89.5,88.5C 88.8333,88.5 88.1667,88.5 87.5,88.5C 83.4915,85.814 79.8249,82.6473 76.5,79C 65.3977,69.8614 54.8977,70.3614 45,80.5C 40.5986,90.8226 43.7653,97.9893 54.5,102C 61.4921,102.5 68.4921,102.666 75.5,102.5C 76.5,102.833 77.1667,103.5 77.5,104.5C 72.5283,108.135 70.5283,113.135 71.5,119.5C 71.4142,120.496 71.7476,121.329 72.5,122C 69.3758,121.703 67.7091,119.87 67.5,116.5C 68.4395,113.357 69.7729,110.357 71.5,107.5C 62.5311,107.489 54.1978,105.322 46.5,101C 44.6667,98.5 42.8333,96 41,93.5C 40.3333,89.8333 40.3333,86.1667 41,82.5C 47.6287,71.7877 57.1287,67.7877 69.5,70.5C 69.5,71.5 69.5,72.5 69.5,73.5C 71.854,73.838 74.1873,74.338 76.5,75C 78.8286,79.1731 82.1619,82.0064 86.5,83.5 Z"/></g>
<g><path style="opacity:1" fill="#ffe23d" d="M 77.5,96.5 C 77.3284,97.4916 77.6618,98.1583 78.5,98.5C 78.5,99.8333 78.5,101.167 78.5,102.5C 79.5,102.5 80.5,102.5 81.5,102.5C 81.5,101.167 81.5,99.8333 81.5,98.5C 82.4972,98.4701 83.1639,98.9701 83.5,100C 81.8947,101.922 82.228,103.089 84.5,103.5C 83.6879,104.993 82.3545,105.66 80.5,105.5C 79.2739,105.48 78.2739,105.147 77.5,104.5C 77.1667,103.5 76.5,102.833 75.5,102.5C 75.0535,99.9899 75.7202,97.9899 77.5,96.5 Z"/></g>
<g><path style="opacity:1" fill="#fff8e1" d="M 78.5,98.5 C 79.5,98.5 80.5,98.5 81.5,98.5C 81.5,99.8333 81.5,101.167 81.5,102.5C 80.5,102.5 79.5,102.5 78.5,102.5C 78.5,101.167 78.5,99.8333 78.5,98.5 Z"/></g>
<g><path style="opacity:1" fill="#fffac6" d="M 90.5,102.5 C 91.8333,102.5 93.1667,102.5 94.5,102.5C 94.5,103.833 94.5,105.167 94.5,106.5C 91.5,106.833 90.1667,105.5 90.5,102.5 Z"/></g>
<g><path style="opacity:1" fill="#ff2a6b" d="M 107.5,96.5 C 115.659,99.1639 122.825,103.497 129,109.5C 130.504,113.039 130.837,116.705 130,120.5C 127.463,123.372 124.63,125.872 121.5,128C 118.5,128.667 115.5,128.667 112.5,128C 104.898,123.567 99.2315,117.4 95.5,109.5C 96.9573,107.372 97.9573,105.038 98.5,102.5C 99.8333,101.833 101.167,101.167 102.5,100.5C 104.167,99.1667 105.833,97.8333 107.5,96.5 Z"/></g>
<g><path style="opacity:1" fill="#ffdce7" d="M 77.5,114.5 C 80.694,114.176 81.694,115.342 80.5,118C 79.2068,118.49 77.8734,118.657 76.5,118.5C 76.4326,117.041 76.7659,115.708 77.5,114.5 Z"/></g>
<g><path style="opacity:1" fill="#ffe6ee" d="M 122.5,113.5 C 123.5,113.5 124.5,113.5 125.5,113.5C 125.682,115.591 125.348,117.591 124.5,119.5C 123.675,120.386 122.675,120.719 121.5,120.5C 121.993,118.194 122.326,115.861 122.5,113.5 Z"/></g>
<g><path style="opacity:0.318" fill="#ffaab3" d="M 18.5,113.5 C 28.0951,115.632 37.7618,115.965 47.5,114.5C 46.4489,115.222 45.7822,116.222 45.5,117.5C 42.9455,118.388 40.2788,118.721 37.5,118.5C 37.0296,117.307 36.0296,116.64 34.5,116.5C 32.9704,116.64 31.9704,117.307 31.5,118.5C 26.9946,118.729 22.6613,118.063 18.5,116.5C 18.5,115.5 18.5,114.5 18.5,113.5 Z"/></g>
<g><path style="opacity:0.365" fill="#ffe5e8" d="M 37.5,118.5 C 35.5,118.5 33.5,118.5 31.5,118.5C 31.9704,117.307 32.9704,116.64 34.5,116.5C 36.0296,116.64 37.0296,117.307 37.5,118.5 Z"/></g>
<g><path style="opacity:0.175" fill="#ffd6dc" d="M 142.5,101.5 C 155.346,104.341 166.18,110.675 175,120.5C 179.495,129.188 179.495,137.854 175,146.5C 168.876,157.127 160.376,165.127 149.5,170.5C 149.433,169.041 149.766,167.708 150.5,166.5C 161.045,161.771 168.712,154.104 173.5,143.5C 176.324,136.186 176.158,128.853 173,121.5C 168.366,115.934 162.866,111.434 156.5,108C 151.027,107.091 146.361,104.925 142.5,101.5 Z"/></g>
<g><path style="opacity:1" fill="#ffe9eb" d="M 39.5,139.5 C 40.5,139.5 41.5,139.5 42.5,139.5C 42.5429,142.91 42.0429,146.243 41,149.5C 39.9887,150.337 38.8221,150.67 37.5,150.5C 37.5,148.833 37.5,147.167 37.5,145.5C 37.6036,143.297 38.2702,141.297 39.5,139.5 Z"/></g>
<g><path style="opacity:0.966" fill="#ff7d89" d="M 51.5,117.5 C 52.2389,117.369 52.9056,117.536 53.5,118C 49.6667,121.833 45.8333,125.667 42,129.5C 40.0073,131.818 38.8406,134.484 38.5,137.5C 39.8734,137.343 41.2068,137.51 42.5,138C 41.2625,138.232 40.2625,138.732 39.5,139.5C 38.2702,141.297 37.6036,143.297 37.5,145.5C 36.6551,147.771 35.6551,150.105 34.5,152.5C 35.6406,155.755 36.4739,159.089 37,162.5C 40.4469,169.614 45.6135,175.114 52.5,179C 51.0715,179.579 49.7382,179.412 48.5,178.5C 33.6736,168.528 28.8403,154.862 34,137.5C 38.2212,129.369 44.0546,122.702 51.5,117.5 Z"/></g>
<g><path style="opacity:1" fill="#ffebed" d="M 121.5,155.5 C 122.806,156.467 123.473,157.801 123.5,159.5C 122.5,159.5 121.5,159.5 120.5,159.5C 116.849,157.53 114.849,154.53 114.5,150.5C 117.643,150.969 119.977,152.636 121.5,155.5 Z"/></g>
<g><path style="opacity:0.263" fill="#ffe6eb" d="M 102.5,141.5 C 104.026,146.885 106.36,151.885 109.5,156.5C 109.5,157.5 109.5,158.5 109.5,159.5C 106.252,155.336 103.252,151.003 100.5,146.5C 98.0459,157.739 93.2126,167.739 86,176.5C 84.2884,178.052 82.455,179.385 80.5,180.5C 80.5,179.833 80.5,179.167 80.5,178.5C 90.1172,169.726 95.7838,158.726 97.5,145.5C 98.1657,142.972 98.8324,140.306 99.5,137.5C 100.859,138.624 101.859,139.958 102.5,141.5 Z"/></g>
<g><path style="opacity:1" fill="#ff7d89" d="M 121.5,155.5 C 119.977,152.636 117.643,150.969 114.5,150.5C 114.849,154.53 116.849,157.53 120.5,159.5C 121.209,160.404 122.209,160.737 123.5,160.5C 123.67,161.822 123.337,162.989 122.5,164C 129.052,166.412 135.719,167.412 142.5,167C 140.577,167.808 138.577,168.308 136.5,168.5C 134.229,167.319 132.563,167.653 131.5,169.5C 126.773,169.091 122.44,167.591 118.5,165C 115.631,161.962 112.631,159.129 109.5,156.5C 106.36,151.885 104.026,146.885 102.5,141.5C 102.369,140.624 102.702,139.957 103.5,139.5C 104.526,144.691 107.026,149.024 111,152.5C 112.046,150.91 113.213,149.41 114.5,148C 118.323,148.604 121.323,150.77 123.5,154.5C 123.043,155.298 122.376,155.631 121.5,155.5 Z"/></g>
<g><path style="opacity:1" fill="#ffd8dc" d="M 124.5,159.5 C 125.833,159.5 127.167,159.5 128.5,159.5C 128.5,160.833 128.5,162.167 128.5,163.5C 127.167,163.5 125.833,163.5 124.5,163.5C 124.5,162.167 124.5,160.833 124.5,159.5 Z"/></g>
<g><path style="opacity:0.049" fill="#ffe1e6" d="M 51.5,117.5 C 44.0546,122.702 38.2212,129.369 34,137.5C 28.8403,154.862 33.6736,168.528 48.5,178.5C 48.5,179.5 48.5,180.5 48.5,181.5C 27.746,166.896 24.246,148.896 38,127.5C 41,124.5 44,121.5 47,118.5C 47.6053,116.365 47.1053,116.031 45.5,117.5C 45.7822,116.222 46.4489,115.222 47.5,114.5C 49.8954,113.637 52.2287,113.637 54.5,114.5C 53.6602,115.735 52.6602,116.735 51.5,117.5 Z"/></g>
<g><path style="opacity:0.988" fill="#ff7884" d="M 173.5,143.5 C 168.712,154.104 161.045,161.771 150.5,166.5C 149.761,166.631 149.094,166.464 148.5,166C 159.825,160.512 167.825,152.012 172.5,140.5C 173.386,141.325 173.719,142.325 173.5,143.5 Z"/></g>
<g><path style="opacity:0.286" fill="#ffc8ce" d="M 109.5,156.5 C 112.631,159.129 115.631,161.962 118.5,165C 122.44,167.591 126.773,169.091 131.5,169.5C 134.929,169.769 137.929,170.769 140.5,172.5C 134.221,173.061 128.221,172.227 122.5,170C 117.664,166.985 113.331,163.485 109.5,159.5C 109.5,158.5 109.5,157.5 109.5,156.5 Z"/></g>
<g><path style="opacity:0.004" fill="#ffe9ec" d="M 146.5,170.5 C 146.027,171.906 145.027,172.573 143.5,172.5C 143.5,171.5 143.5,170.5 143.5,169.5C 144.791,169.263 145.791,169.596 146.5,170.5 Z"/></g>
<g><path style="opacity:1" fill="#ff7b87" d="M 97.5,145.5 C 95.7838,158.726 90.1172,169.726 80.5,178.5C 73.0971,182.847 65.0971,184.347 56.5,183C 55.9558,182.283 55.2891,181.783 54.5,181.5C 53.1498,180.35 53.3164,179.683 55,179.5C 64.9713,182.276 74.1379,180.442 82.5,174C 90.8904,162.973 95.5571,150.473 96.5,136.5C 97.4841,139.428 97.8174,142.428 97.5,145.5 Z"/></g>
<g><path style="opacity:0.025" fill="#ffcbd1" d="M 80.5,178.5 C 80.5,179.167 80.5,179.833 80.5,180.5C 78.2669,182.348 75.9336,184.015 73.5,185.5C 67.1667,185.5 60.8333,185.5 54.5,185.5C 52.8333,184.167 51.1667,182.833 49.5,181.5C 50.9989,180.506 52.6656,180.506 54.5,181.5C 55.2891,181.783 55.9558,182.283 56.5,183C 65.0971,184.347 73.0971,182.847 80.5,178.5 Z"/></g>
</svg>
